ply
format ascii 1.0
element vertex 2271
property float x
property float y
property float z
property uchar red
property uchar green
property uchar blue
end_header
0.860000 -1.420000 7.777778 9 15 9
-1.460000 -1.410000 3.043478 7 23 34
-1.100000 -1.410000 7.000000 16 30 22
-0.800000 -1.410000 2.413793 99 96 83
-0.300000 -1.410000 5.000000 52 57 37
-0.220000 -1.410000 3.888889 74 72 61
-0.070000 -1.410000 8.750000 119 104 86
0.190000 -1.410000 5.000000 118 105 87
0.890000 -1.410000 7.777778 6 14 8
0.910000 -1.410000 7.000000 10 21 12
1.460000 -1.410000 14.000000 48 51 39
-1.860000 -1.400000 70.000000 45 52 44
-1.690000 -1.400000 7.000000 62 63 50
-1.460000 -1.400000 3.043478 3 19 26
-0.070000 -1.400000 8.750000 115 101 83
0.270000 -1.400000 6.363636 84 81 62
1.240000 -1.400000 2.500000 48 52 39
-1.710000 -1.390000 7.000000 62 62 53
-1.690000 -1.390000 6.363636 64 63 53
-1.460000 -1.390000 3.043478 4 20 26
-0.800000 -1.390000 2.413793 99 93 83
-0.300000 -1.390000 5.000000 47 51 33
-0.100000 -1.390000 23.333333 115 101 83
0.610000 -1.390000 3.888889 102 92 78
0.630000 -1.390000 11.666667 104 94 79
1.240000 -1.390000 2.500000 48 52 36
-1.460000 -1.380000 3.043478 6 20 27
-0.850000 -1.380000 70.000000 120 111 99
-0.660000 -1.380000 35.000000 94 89 79
-0.150000 -1.380000 3.888889 122 109 92
0.080000 -1.380000 3.888889 116 103 85
0.280000 -1.380000 7.000000 123 109 95
0.350000 -1.380000 17.500000 109 98 83
0.610000 -1.380000 3.888889 105 95 79
0.900000 -1.380000 7.000000 6 16 10
1.240000 -1.380000 2.500000 49 52 38
1.420000 -1.380000 35.000000 48 52 38
-1.460000 -1.370000 3.043478 8 22 29
-0.720000 -1.370000 35.000000 14 30 36
-0.060000 -1.370000 10.000000 113 102 83
0.840000 -1.370000 7.777778 75 60 57
1.240000 -1.370000 2.500000 49 51 38
-1.460000 -1.360000 3.043478 7 23 28
-0.730000 -1.360000 35.000000 21 20 19
-0.660000 -1.360000 35.000000 96 91 79
-0.220000 -1.360000 3.888889 74 72 60
0.100000 -1.360000 7.000000 115 101 82
0.770000 -1.360000 17.500000 108 97 81
-1.460000 -1.350000 3.043478 10 26 31
-0.720000 -1.350000 35.000000 12 29 35
-0.660000 -1.350000 35.000000 109 101 90
-0.300000 -1.350000 5.000000 59 59 43
-0.220000 -1.350000 3.888889 76 73 62
0.800000 -1.350000 11.666667 110 98 83
1.250000 -1.350000 2.413793 49 52 38
1.430000 -1.350000 35.000000 48 48 36
-1.690000 -1.340000 7.000000 63 64 52
-1.460000 -1.340000 3.043478 10 24 31
-0.860000 -1.340000 6.363636 61 80 76
-0.700000 -1.340000 7.000000 26 44 49
-0.150000 -1.340000 2.692308 80 75 51
1.450000 -1.340000 35.000000 50 50 35
1.530000 -1.340000 35.000000 49 51 37
1.810000 -1.340000 35.000000 45 47 36
-1.860000 -1.330000 23.333333 47 53 45
-1.460000 -1.330000 3.043478 12 24 31
-0.700000 -1.330000 7.000000 26 43 46
-0.050000 -1.330000 17.500000 87 69 44
0.420000 -1.330000 70.000000 79 64 44
0.840000 -1.330000 8.750000 73 59 53
1.600000 -1.330000 70.000000 49 49 38
1.610000 -1.330000 70.000000 48 49 37
1.810000 -1.330000 35.000000 45 46 33
-1.860000 -1.320000 23.333333 50 53 45
-1.820000 -1.320000 14.000000 46 51 45
-1.690000 -1.320000 7.000000 67 65 55
-1.670000 -1.320000 7.000000 62 61 53
-1.460000 -1.320000 3.043478 16 29 34
-0.860000 -1.320000 3.684211 122 109 101
1.450000 -1.320000 35.000000 47 51 37
-1.860000 -1.310000 23.333333 49 54 49
-1.820000 -1.310000 14.000000 49 53 47
-1.460000 -1.310000 3.043478 10 27 36
0.380000 -1.310000 70.000000 56 52 42
0.410000 -1.310000 8.750000 47 44 34
0.520000 -1.310000 35.000000 34 38 26
0.630000 -1.310000 7.000000 43 44 32
1.620000 -1.310000 70.000000 49 51 38
1.650000 -1.310000 35.000000 48 50 36
-1.860000 -1.300000 23.333333 49 53 47
-1.820000 -1.300000 14.000000 47 52 44
-1.710000 -1.300000 7.777778 67 64 55
-1.690000 -1.300000 7.000000 66 67 56
-1.460000 -1.300000 3.043478 9 26 36
-0.700000 -1.300000 7.000000 26 42 46
1.450000 -1.300000 35.000000 49 51 38
-1.860000 -1.290000 23.333333 51 56 49
-1.820000 -1.290000 14.000000 44 50 42
-1.690000 -1.290000 7.000000 67 65 57
-1.460000 -1.290000 3.043478 9 24 37
-1.010000 -1.290000 7.777778 53 43 25
-0.810000 -1.290000 70.000000 58 57 39
-0.510000 -1.290000 3.181818 34 47 46
-0.060000 -1.290000 17.500000 90 87 72
0.670000 -1.290000 23.333333 29 24 19
1.450000 -1.290000 35.000000 50 50 40
-1.860000 -1.280000 23.333333 52 56 48
-1.820000 -1.280000 14.000000 48 51 45
-0.810000 -1.280000 70.000000 58 56 38
-0.700000 -1.280000 7.000000 22 39 44
0.110000 -1.280000 70.000000 55 52 42
0.560000 -1.280000 7.777778 35 31 24
1.470000 -1.280000 35.000000 50 51 38
1.640000 -1.280000 17.500000 47 52 38
1.730000 -1.280000 35.000000 46 48 34
1.880000 -1.280000 35.000000 46 47 36
-1.860000 -1.270000 23.333333 50 53 46
-1.820000 -1.270000 14.000000 48 52 45
-1.670000 -1.270000 7.000000 66 65 57
-1.480000 -1.270000 3.181818 8 26 38
-1.460000 -1.270000 3.043478 13 29 40
-1.390000 -1.270000 23.333333 28 37 43
0.560000 -1.270000 7.777778 39 39 29
0.580000 -1.270000 7.000000 33 35 27
1.780000 -1.270000 35.000000 49 49 36
1.830000 -1.270000 70.000000 43 46 36
-1.860000 -1.260000 23.333333 46 52 44
-1.820000 -1.260000 14.000000 48 52 45
-1.690000 -1.260000 7.000000 66 66 55
-1.480000 -1.260000 3.181818 10 25 35
-1.390000 -1.260000 70.000000 26 39 47
0.310000 -1.260000 2.916667 50 48 33
0.350000 -1.260000 2.692308 51 48 34
0.440000 -1.260000 70.000000 54 51 38
0.500000 -1.260000 35.000000 44 42 29
0.640000 -1.260000 5.000000 51 52 37
1.610000 -1.260000 35.000000 49 49 35
1.770000 -1.260000 35.000000 47 48 38
-1.860000 -1.250000 23.333333 45 52 46
-1.820000 -1.250000 14.000000 43 48 41
-1.480000 -1.250000 3.181818 9 25 33
-0.950000 -1.250000 7.000000 42 37 19
0.310000 -1.250000 2.916667 45 45 32
0.350000 -1.250000 2.692308 44 45 32
1.790000 -1.250000 35.000000 48 48 38
-1.860000 -1.240000 23.333333 49 53 47
-1.820000 -1.240000 14.000000 40 47 44
-1.480000 -1.240000 3.181818 9 24 34
-0.950000 -1.240000 7.000000 37 31 15
-0.860000 -1.240000 7.000000 122 110 104
-0.710000 -1.240000 70.000000 33 43 54
0.310000 -1.240000 2.916667 52 49 39
0.350000 -1.240000 2.692308 48 48 41
0.560000 -1.240000 7.777778 47 47 37
1.540000 -1.240000 23.333333 50 53 39
1.550000 -1.240000 35.000000 49 49 36
1.780000 -1.240000 35.000000 49 50 38
-1.860000 -1.230000 23.333333 53 56 48
-1.820000 -1.230000 14.000000 45 48 43
-1.480000 -1.230000 3.181818 9 23 32
-1.460000 -1.230000 3.043478 9 24 34
-1.070000 -1.230000 23.333333 57 47 30
-0.810000 -1.230000 70.000000 58 56 38
-0.710000 -1.230000 70.000000 32 43 52
-0.700000 -1.230000 70.000000 23 36 46
0.320000 -1.230000 2.800000 40 42 34
0.330000 -1.230000 2.800000 39 41 30
-1.860000 -1.220000 23.333333 54 58 49
-1.460000 -1.220000 3.043478 8 25 34
-0.810000 -1.220000 70.000000 58 58 39
-0.710000 -1.220000 70.000000 35 44 54
0.320000 -1.220000 2.800000 33 40 32
1.550000 -1.220000 35.000000 47 49 36
1.690000 -1.220000 35.000000 47 47 36
1.770000 -1.220000 70.000000 48 48 37
-1.860000 -1.210000 23.333333 53 59 51
-1.840000 -1.210000 17.500000 45 51 43
-1.460000 -1.210000 3.043478 9 24 36
-0.810000 -1.210000 70.000000 57 56 37
-0.550000 -1.210000 8.750000 37 46 54
-0.540000 -1.210000 10.000000 32 45 52
-0.230000 -1.210000 3.684211 86 86 74
-0.070000 -1.210000 17.500000 91 74 49
0.320000 -1.210000 2.800000 37 39 30
1.470000 -1.210000 35.000000 48 49 38
1.560000 -1.210000 70.000000 49 51 38
1.740000 -1.210000 17.500000 50 50 37
-1.860000 -1.200000 23.333333 56 58 50
-1.820000 -1.200000 14.000000 43 50 43
-0.810000 -1.200000 70.000000 59 57 40
-0.800000 -1.200000 2.333333 83 81 66
-0.540000 -1.200000 10.000000 31 45 53
-1.860000 -1.190000 23.333333 55 58 49
-1.820000 -1.190000 14.000000 43 47 40
-1.420000 -1.190000 2.800000 6 21 29
-1.210000 -1.190000 7.000000 22 33 40
-1.140000 -1.190000 4.666667 48 41 26
-0.970000 -1.190000 70.000000 61 48 31
-0.700000 -1.190000 8.750000 22 38 44
-0.660000 -1.190000 7.000000 22 36 46
-1.860000 -1.180000 23.333333 52 55 47
-1.820000 -1.180000 14.000000 44 47 42
-1.420000 -1.180000 2.800000 6 20 28
-0.680000 -1.180000 8.750000 22 37 44
-0.360000 -1.180000 7.777778 44 52 60
0.470000 -1.180000 11.666667 57 53 41
0.510000 -1.180000 8.750000 48 44 31
0.550000 -1.180000 7.000000 49 44 33
-1.860000 -1.170000 23.333333 52 53 47
-1.820000 -1.170000 14.000000 46 50 42
-1.670000 -1.170000 6.363636 67 66 57
-1.420000 -1.170000 2.800000 7 20 29
0.310000 -1.170000 2.916667 49 45 37
0.350000 -1.170000 2.692308 50 49 36
0.390000 -1.170000 2.500000 51 48 38
1.620000 -1.170000 17.500000 50 49 39
1.780000 -1.170000 35.000000 49 49 38
-1.860000 -1.160000 23.333333 52 55 46
-1.800000 -1.160000 11.666667 44 47 40
-1.670000 -1.160000 6.363636 66 66 55
-1.640000 -1.160000 7.000000 61 60 51
-1.420000 -1.160000 2.800000 5 21 29
-0.620000 -1.160000 7.777778 86 77 66
0.760000 -1.160000 4.666667 5 12 10
1.570000 -1.160000 35.000000 48 48 38
1.590000 -1.160000 70.000000 50 48 36
1.830000 -1.160000 70.000000 48 49 37
-1.860000 -1.150000 23.333333 50 53 46
-1.800000 -1.150000 11.666667 46 50 44
-1.670000 -1.150000 6.363636 68 67 56
-1.250000 -1.150000 8.750000 28 38 47
-0.910000 -1.150000 23.333333 47 37 22
-0.710000 -1.150000 2.916667 32 42 51
-0.150000 -1.150000 3.043478 90 73 51
-0.080000 -1.150000 35.000000 90 74 49
0.700000 -1.150000 7.000000 7 14 10
-1.860000 -1.140000 23.333333 52 55 46
-1.690000 -1.140000 7.000000 68 68 57
-1.210000 -1.140000 7.000000 21 32 39
-0.670000 -1.140000 2.692308 21 36 40
-0.480000 -1.140000 35.000000 87 82 65
-0.050000 -1.140000 35.000000 67 60 41
0.130000 -1.140000 11.666667 66 59 39
0.470000 -1.140000 17.500000 75 64 44
1.340000 -1.140000 35.000000 49 50 37
-1.880000 -1.130000 35.000000 51 55 46
-1.210000 -1.130000 7.000000 21 31 40
-0.980000 -1.130000 3.500000 65 52 33
-0.950000 -1.130000 35.000000 63 51 33
-0.740000 -1.130000 3.181818 108 95 88
-0.670000 -1.130000 2.692308 20 35 39
-0.480000 -1.130000 4.375000 94 86 71
-0.080000 -1.130000 2.413793 128 101 91
-0.070000 -1.130000 2.413793 76 61 43
0.030000 -1.130000 17.500000 86 70 53
0.040000 -1.130000 5.384615 86 71 56
0.490000 -1.130000 35.000000 86 70 52
0.700000 -1.130000 7.777778 6 14 11
0.800000 -1.130000 5.000000 40 41 34
1.310000 -1.130000 35.000000 49 50 38
1.580000 -1.130000 70.000000 51 51 40
-1.210000 -1.120000 7.000000 21 32 42
-1.150000 -1.120000 5.000000 53 44 25
-0.480000 -1.120000 4.375000 93 87 72
0.040000 -1.120000 5.833333 84 74 56
0.430000 -1.120000 17.500000 87 73 52
1.020000 -1.120000 6.363636 46 48 39
1.100000 -1.120000 4.666667 49 50 36
1.320000 -1.120000 35.000000 50 52 41
-1.250000 -1.110000 8.750000 30 41 47
-1.080000 -1.110000 5.000000 61 48 32
-0.740000 -1.110000 7.000000 112 100 92
-0.690000 -1.110000 2.800000 28 38 48
-0.670000 -1.110000 2.800000 23 36 42
-0.230000 -1.110000 14.000000 81 82 69
0.040000 -1.110000 5.833333 86 71 50
1.440000 -1.110000 5.000000 50 51 40
1.650000 -1.110000 70.000000 49 50 38
1.660000 -1.110000 70.000000 48 51 37
1.670000 -1.110000 70.000000 50 50 37
1.680000 -1.110000 70.000000 50 51 39
1.850000 -1.110000 11.666667 49 50 37
-1.250000 -1.100000 8.750000 28 39 48
-1.070000 -1.100000 5.000000 54 47 28
-1.030000 -1.100000 4.375000 61 49 29
-0.680000 -1.100000 2.800000 26 39 48
-0.080000 -1.100000 17.500000 99 90 62
1.430000 -1.100000 17.500000 49 50 38
1.550000 -1.100000 7.000000 42 45 34
1.660000 -1.100000 70.000000 49 51 40
1.850000 -1.100000 11.666667 48 49 37
-1.550000 -1.090000 70.000000 18 20 15
-1.130000 -1.090000 5.000000 39 39 30
-1.110000 -1.090000 4.666667 47 43 30
-1.080000 -1.090000 5.000000 57 47 31
-0.630000 -1.090000 8.750000 80 79 60
-0.420000 -1.090000 7.000000 82 80 63
-0.160000 -1.090000 7.000000 17 36 16
1.320000 -1.090000 35.000000 51 51 41
-1.400000 -1.080000 2.692308 45 54 65
-1.130000 -1.080000 5.000000 41 36 25
-0.570000 -1.080000 11.666667 65 60 45
-0.380000 -1.080000 70.000000 65 63 46
1.560000 -1.080000 7.000000 43 37 23
-1.400000 -1.070000 2.692308 50 55 63
-0.670000 -1.070000 11.666667 81 78 72
-0.560000 -1.070000 11.666667 83 69 56
-0.540000 -1.070000 10.000000 76 66 54
-0.430000 -1.070000 70.000000 68 62 50
-0.220000 -1.070000 17.500000 78 74 66
0.660000 -1.070000 8.750000 49 47 39
0.680000 -1.070000 7.777778 47 46 39
1.870000 -1.070000 35.000000 50 51 43
-0.070000 -1.060000 70.000000 53 53 44
0.140000 -1.060000 35.000000 49 49 42
0.390000 -1.060000 8.750000 47 49 37
0.460000 -1.060000 35.000000 48 51 40
1.560000 -1.060000 7.000000 50 44 33
-1.820000 -1.050000 35.000000 72 70 62
0.010000 -1.050000 35.000000 55 54 41
0.030000 -1.050000 35.000000 56 55 42
0.220000 -1.050000 70.000000 59 57 46
0.330000 -1.050000 17.500000 56 56 42
1.380000 -1.050000 7.777778 67 62 51
1.400000 -1.050000 7.000000 67 61 51
1.500000 -1.050000 7.000000 80 72 63
-1.580000 -1.040000 14.000000 101 95 84
-1.410000 -1.040000 7.000000 104 97 86
-1.070000 -1.040000 35.000000 238 217 187
-0.450000 -1.040000 35.000000 86 82 71
0.120000 -1.040000 11.666667 60 60 49
0.180000 -1.040000 70.000000 58 60 48
0.200000 -1.040000 70.000000 60 60 50
0.240000 -1.040000 70.000000 60 59 48
0.330000 -1.040000 35.000000 59 57 45
0.490000 -1.040000 35.000000 55 54 42
0.720000 -1.040000 17.500000 55 54 43
1.180000 -1.040000 3.888889 58 57 44
1.500000 -1.040000 7.000000 121 103 96
1.660000 -1.040000 8.750000 127 110 98
-1.780000 -1.030000 14.000000 63 66 54
-1.690000 -1.030000 6.363636 88 83 72
-1.670000 -1.030000 5.833333 93 86 76
-1.520000 -1.030000 35.000000 104 99 86
-1.510000 -1.030000 70.000000 107 99 87
0.020000 -1.030000 35.000000 65 62 53
0.160000 -1.030000 70.000000 62 60 49
1.660000 -1.030000 8.750000 127 112 98
1.740000 -1.020000 70.000000 125 111 97
-1.760000 -1.010000 10.000000 87 81 72
-1.720000 -1.010000 7.000000 73 73 61
-1.430000 -1.010000 7.000000 98 83 79
-1.300000 -1.010000 10.000000 100 90 81
-1.240000 -1.010000 7.000000 102 96 79
-1.160000 -1.010000 7.777778 100 107 79
-0.710000 -1.010000 70.000000 84 89 69
0.010000 -1.010000 35.000000 57 58 46
0.630000 -1.010000 17.500000 51 53 40
1.280000 -1.010000 5.384615 109 100 83
1.710000 -1.010000 2.916667 81 74 62
1.730000 -1.010000 2.916667 117 102 89
1.820000 -1.010000 10.000000 91 81 76
-0.350000 -1.000000 70.000000 76 71 60
-0.170000 -1.000000 17.500000 131 109 98
0.050000 -1.000000 35.000000 68 64 53
0.070000 -1.000000 35.000000 69 63 50
0.110000 -1.000000 17.500000 67 61 50
1.730000 -1.000000 2.916667 125 110 95
-0.850000 -0.990000 35.000000 124 115 105
-0.280000 -0.990000 8.750000 83 78 68
0.120000 -0.990000 35.000000 74 70 62
0.630000 -0.990000 35.000000 68 64 53
0.660000 -0.990000 35.000000 69 67 54
1.610000 -0.990000 3.888889 93 84 75
-1.720000 -0.980000 7.000000 64 57 56
-1.460000 -0.980000 17.500000 119 109 100
-0.920000 -0.980000 7.777778 140 126 116
-0.860000 -0.980000 35.000000 125 115 105
0.340000 -0.980000 35.000000 75 72 61
1.610000 -0.980000 3.888889 126 107 99
-1.050000 -0.970000 8.750000 153 139 125
-0.880000 -0.970000 70.000000 127 119 108
0.330000 -0.970000 35.000000 76 70 58
1.050000 -0.970000 17.500000 67 63 51
-1.710000 -0.960000 7.000000 49 56 65
-1.020000 -0.960000 2.800000 92 104 79
-1.000000 -0.960000 17.500000 92 104 81
-0.990000 -0.960000 17.500000 91 102 79
-0.950000 -0.960000 11.666667 95 103 81
-0.880000 -0.960000 70.000000 90 97 76
-0.770000 -0.960000 35.000000 89 94 75
0.370000 -0.960000 35.000000 63 63 50
0.560000 -0.960000 35.000000 56 59 47
0.660000 -0.960000 17.500000 54 57 44
1.810000 -0.960000 11.666667 115 104 90
1.870000 -0.960000 70.000000 88 86 71
-0.800000 -0.950000 70.000000 16 38 18
-0.770000 -0.950000 35.000000 17 38 15
-0.500000 -0.950000 23.333333 59 63 56
-0.320000 -0.950000 5.833333 48 50 46
-0.200000 -0.950000 4.375000 88 87 72
-0.080000 -0.950000 23.333333 27 41 25
0.020000 -0.950000 70.000000 27 41 23
0.240000 -0.950000 35.000000 26 39 22
0.400000 -0.950000 70.000000 24 39 22
0.430000 -0.950000 35.000000 22 34 19
1.860000 -0.950000 3.888889 118 97 91
0.240000 -0.940000 35.000000 15 25 17
0.540000 -0.940000 17.500000 17 25 18
1.100000 -0.940000 4.375000 22 43 50
1.740000 -0.940000 10.000000 87 80 69
-1.750000 -0.930000 8.750000 55 66 68
0.670000 -0.930000 35.000000 17 25 17
0.820000 -0.930000 35.000000 9 16 12
1.100000 -0.930000 4.375000 23 45 51
1.180000 -0.930000 3.500000 21 46 53
-1.710000 -0.920000 7.000000 54 67 68
-1.790000 -0.910000 11.666667 49 61 64
0.630000 -0.910000 35.000000 15 24 17
0.880000 -0.910000 17.500000 8 15 12
1.780000 -0.910000 7.000000 126 112 99
1.800000 -0.910000 6.363636 126 112 99
-0.430000 -0.900000 7.000000 6 13 11
-0.220000 -0.900000 70.000000 91 89 78
0.880000 -0.900000 17.500000 6 14 13
-1.520000 -0.890000 7.000000 66 72 69
1.300000 -0.890000 70.000000 128 114 98
1.360000 -0.890000 17.500000 121 110 94
1.730000 -0.890000 35.000000 118 104 90
-0.450000 -0.880000 7.000000 7 14 11
-0.410000 -0.880000 5.833333 12 17 14
0.790000 -0.880000 17.500000 7 13 10
1.040000 -0.880000 5.384615 21 46 49
1.300000 -0.880000 70.000000 129 114 100
1.350000 -0.880000 17.500000 122 108 95
1.390000 -0.880000 11.666667 121 108 94
1.450000 -0.880000 7.000000 96 87 74
1.470000 -0.880000 6.363636 126 109 98
1.850000 -0.880000 4.375000 117 102 88
-1.620000 -0.870000 7.000000 28 42 32
-0.060000 -0.870000 11.666667 48 43 44
0.080000 -0.870000 70.000000 14 22 17
0.790000 -0.870000 35.000000 19 17 18
0.810000 -0.870000 23.333333 5 10 8
1.350000 -0.870000 17.500000 121 108 95
1.390000 -0.870000 11.666667 120 108 92
1.450000 -0.870000 7.000000 72 72 57
1.470000 -0.870000 6.363636 102 93 78
1.490000 -0.870000 5.833333 110 104 86
1.710000 -0.870000 11.666667 97 86 77
-1.530000 -0.860000 7.000000 68 74 76
1.390000 -0.860000 11.666667 120 106 92
1.450000 -0.860000 7.000000 93 79 68
1.490000 -0.860000 5.833333 112 102 86
1.690000 -0.860000 11.666667 124 102 92
1.730000 -0.860000 8.750000 121 100 90
-0.230000 -0.850000 23.333333 112 103 93
-0.200000 -0.850000 35.000000 93 86 76
-0.090000 -0.850000 17.500000 71 55 53
0.160000 -0.850000 11.666667 18 24 19
0.200000 -0.850000 8.750000 31 28 26
0.970000 -0.850000 3.888889 55 59 55
1.170000 -0.850000 4.375000 20 43 46
1.190000 -0.850000 3.181818 21 43 48
1.350000 -0.850000 17.500000 122 108 94
1.390000 -0.850000 11.666667 120 107 94
1.450000 -0.850000 7.000000 116 99 85
1.790000 -0.850000 5.000000 126 110 96
-1.690000 -0.840000 6.363636 83 86 85
-1.610000 -0.840000 7.000000 35 51 53
-1.340000 -0.840000 3.684211 10 21 29
-1.320000 -0.840000 3.500000 11 25 36
-1.300000 -0.840000 3.333333 11 25 35
-0.990000 -0.840000 70.000000 11 25 38
-0.520000 -0.840000 5.833333 87 80 68
-0.250000 -0.840000 35.000000 47 43 39
-0.230000 -0.840000 23.333333 109 102 94
-0.040000 -0.840000 7.777778 99 80 83
0.230000 -0.840000 7.000000 36 36 25
0.410000 -0.840000 2.333333 93 74 64
0.460000 -0.840000 70.000000 56 51 45
1.250000 -0.840000 3.043478 52 66 43
-1.480000 -0.830000 7.000000 5 14 13
-0.990000 -0.830000 70.000000 13 26 39
0.300000 -0.830000 3.888889 68 57 48
0.510000 -0.830000 7.777778 85 70 65
0.760000 -0.830000 3.684211 91 77 59
0.770000 -0.830000 4.117647 83 74 48
1.100000 -0.830000 2.800000 12 22 18
1.390000 -0.830000 11.666667 122 108 96
1.540000 -0.830000 2.500000 130 115 103
1.880000 -0.830000 6.363636 95 92 77
-1.670000 -0.820000 6.363636 88 91 90
-1.470000 -0.820000 7.000000 11 17 13
-0.210000 -0.820000 11.666667 68 74 58
-0.160000 -0.820000 7.000000 18 29 21
-0.140000 -0.820000 6.363636 33 39 31
-0.030000 -0.820000 11.666667 105 94 88
0.180000 -0.820000 7.777778 87 78 60
1.370000 -0.820000 23.333333 123 109 95
1.390000 -0.820000 11.666667 125 110 97
1.780000 -0.820000 11.666667 118 101 92
1.820000 -0.820000 10.000000 113 99 91
-1.640000 -0.810000 7.000000 73 75 72
-0.750000 -0.810000 7.000000 6 12 11
-0.710000 -0.810000 5.833333 5 13 10
-0.690000 -0.810000 5.384615 5 11 8
-0.670000 -0.810000 5.000000 7 14 12
-0.210000 -0.810000 11.666667 23 32 21
1.390000 -0.810000 14.000000 125 111 98
1.650000 -0.810000 7.000000 122 103 95
1.680000 -0.810000 23.333333 124 107 99
-1.640000 -0.800000 7.000000 78 79 76
-1.170000 -0.800000 3.684211 102 89 85
-0.920000 -0.800000 7.000000 22 42 51
-0.210000 -0.800000 11.666667 20 28 17
-0.070000 -0.800000 23.333333 86 75 67
0.150000 -0.800000 7.000000 69 67 51
0.630000 -0.800000 2.592593 112 92 77
1.180000 -0.800000 3.043478 21 46 51
1.900000 -0.800000 35.000000 107 97 84
-1.700000 -0.790000 8.750000 87 92 91
-0.920000 -0.790000 7.000000 21 41 49
-0.210000 -0.790000 11.666667 26 34 23
-0.040000 -0.790000 70.000000 110 103 96
0.260000 -0.790000 5.384615 105 97 92
-1.780000 -0.780000 17.500000 96 96 91
-0.820000 -0.780000 70.000000 45 47 44
-0.660000 -0.780000 5.384615 72 60 57
-0.650000 -0.780000 5.384615 71 64 55
-0.210000 -0.780000 11.666667 31 34 29
-0.040000 -0.780000 70.000000 105 99 92
0.060000 -0.780000 5.000000 84 72 63
1.750000 -0.780000 17.500000 122 104 94
-0.850000 -0.770000 17.500000 12 19 23
-0.810000 -0.770000 35.000000 31 29 32
-0.210000 -0.770000 11.666667 30 36 28
1.100000 -0.770000 2.800000 12 23 18
-0.740000 -0.760000 7.777778 45 50 44
-0.480000 -0.760000 7.000000 9 17 13
-0.210000 -0.760000 11.666667 28 33 26
0.370000 -0.760000 2.592593 100 86 64
-1.260000 -0.750000 10.000000 98 89 82
-1.150000 -0.750000 8.750000 20 24 30
-0.210000 -0.750000 11.666667 27 33 24
1.090000 -0.750000 2.916667 18 34 39
1.140000 -0.750000 23.333333 30 49 55
1.690000 -0.750000 23.333333 131 115 98
-1.090000 -0.740000 5.833333 0 4 1
-0.970000 -0.740000 3.888889 80 73 75
-0.320000 -0.740000 3.500000 118 120 104
-0.060000 -0.740000 23.333333 72 69 59
0.220000 -0.740000 3.888889 72 60 54
0.830000 -0.740000 70.000000 70 64 54
1.020000 -0.740000 23.333333 22 44 53
1.090000 -0.740000 2.916667 18 34 40
1.140000 -0.740000 23.333333 32 49 58
1.700000 -0.740000 10.000000 133 118 103
-1.630000 -0.730000 7.000000 57 60 55
-1.170000 -0.730000 4.117647 84 82 68
-0.510000 -0.730000 7.000000 7 15 11
0.290000 -0.730000 3.043478 88 81 77
0.830000 -0.730000 70.000000 72 68 55
1.020000 -0.730000 23.333333 23 45 52
1.090000 -0.730000 2.916667 18 35 39
1.140000 -0.730000 23.333333 31 50 56
-1.610000 -0.720000 7.000000 40 52 55
-1.400000 -0.720000 3.888889 6 20 29
-1.160000 -0.720000 4.117647 113 101 93
-0.850000 -0.720000 11.666667 3 11 7
-0.480000 -0.720000 7.000000 8 16 14
0.830000 -0.720000 70.000000 76 68 56
1.150000 -0.720000 17.500000 20 45 49
1.170000 -0.720000 3.181818 23 45 52
-1.610000 -0.710000 7.000000 41 55 56
-1.330000 -0.710000 2.692308 31 31 37
-1.310000 -0.710000 2.592593 10 18 25
-1.030000 -0.710000 7.000000 8 14 11
-0.990000 -0.710000 5.833333 6 13 10
-0.890000 -0.710000 17.500000 6 14 11
-0.850000 -0.710000 11.666667 5 11 9
-0.050000 -0.710000 23.333333 60 60 49
1.140000 -0.710000 17.500000 32 50 59
1.170000 -0.710000 3.181818 25 48 53
1.640000 -0.710000 35.000000 134 121 105
1.800000 -0.710000 7.000000 113 102 89
-1.630000 -0.700000 7.000000 45 51 42
-1.610000 -0.700000 7.000000 37 52 53
-1.330000 -0.700000 2.692308 47 46 50
-1.310000 -0.700000 2.592593 12 21 30
-1.140000 -0.700000 8.750000 13 20 28
-1.030000 -0.700000 7.000000 7 14 11
-0.990000 -0.700000 5.833333 6 12 9
-0.050000 -0.700000 23.333333 61 60 50
0.110000 -0.700000 5.833333 34 36 31
0.310000 -0.700000 3.500000 132 122 110
0.640000 -0.700000 2.592593 112 95 77
0.680000 -0.700000 10.000000 92 81 65
1.010000 -0.700000 35.000000 21 45 49
1.030000 -0.700000 8.750000 24 47 52
1.410000 -0.700000 10.000000 129 115 100
-1.610000 -0.690000 7.000000 37 50 53
-1.110000 -0.690000 14.000000 9 19 22
-1.010000 -0.690000 6.363636 8 14 13
-0.990000 -0.690000 5.833333 6 13 12
-0.500000 -0.690000 7.777778 10 17 16
-0.440000 -0.690000 5.833333 10 19 16
-0.140000 -0.690000 5.833333 28 33 25
-0.050000 -0.690000 23.333333 63 61 51
0.090000 -0.690000 6.363636 39 42 40
0.300000 -0.690000 3.684211 93 112 85
0.500000 -0.690000 4.375000 121 104 95
0.510000 -0.690000 3.888889 107 94 80
0.680000 -0.690000 10.000000 91 80 66
0.780000 -0.690000 8.750000 91 78 61
1.030000 -0.690000 8.750000 23 46 51
1.880000 -0.690000 7.000000 136 121 104
-1.620000 -0.680000 7.000000 25 35 31
-1.610000 -0.680000 7.000000 36 50 50
-1.280000 -0.680000 2.500000 41 56 50
-1.180000 -0.680000 3.684211 114 107 98
-0.440000 -0.680000 5.833333 10 18 17
-0.140000 -0.680000 5.833333 27 35 27
0.230000 -0.680000 3.333333 54 62 48
0.510000 -0.680000 3.888889 110 94 81
0.520000 -0.680000 8.750000 102 88 78
1.010000 -0.680000 35.000000 18 42 48
1.030000 -0.680000 3.043478 23 48 51
1.050000 -0.680000 7.777778 22 46 51
-1.620000 -0.670000 7.000000 33 42 38
-1.610000 -0.670000 7.000000 35 49 50
-1.570000 -0.670000 7.777778 81 89 91
-1.350000 -0.670000 3.888889 102 93 81
-0.630000 -0.670000 5.833333 141 129 119
-0.090000 -0.670000 5.833333 98 94 83
0.960000 -0.670000 7.000000 5 17 12
1.070000 -0.670000 7.000000 24 47 52
1.740000 -0.670000 7.000000 131 115 103
-1.620000 -0.660000 7.000000 25 34 29
-1.280000 -0.660000 2.500000 19 36 36
-0.140000 -0.660000 5.833333 30 37 26
0.850000 -0.660000 10.000000 80 73 64
0.960000 -0.660000 7.000000 5 15 10
1.070000 -0.660000 7.000000 23 45 52
1.570000 -0.660000 3.181818 131 113 101
-1.620000 -0.650000 7.000000 21 31 29
-1.160000 -0.650000 35.000000 99 94 76
-1.130000 -0.650000 7.777778 5 13 22
-0.020000 -0.650000 11.666667 98 86 79
0.000000 -0.650000 10.000000 60 59 53
0.920000 -0.650000 8.750000 8 15 12
0.960000 -0.650000 7.000000 6 16 10
1.090000 -0.650000 2.413793 17 35 39
1.550000 -0.650000 3.333333 113 105 90
-1.020000 -0.640000 5.833333 8 16 13
-0.420000 -0.640000 5.833333 138 126 115
-0.030000 -0.640000 11.666667 89 83 78
0.060000 -0.640000 5.833333 10 18 15
0.290000 -0.640000 4.117647 98 102 64
1.150000 -0.640000 3.181818 24 47 51
1.550000 -0.640000 3.333333 123 109 97
1.570000 -0.640000 3.181818 131 115 102
1.670000 -0.640000 23.333333 132 117 100
-1.450000 -0.630000 7.000000 4 14 13
-1.020000 -0.630000 5.833333 7 14 12
0.290000 -0.630000 4.117647 154 125 55
0.510000 -0.630000 5.384615 120 107 92
1.180000 -0.630000 3.181818 27 50 54
1.200000 -0.630000 3.043478 26 50 54
1.840000 -0.630000 3.500000 114 108 94
1.870000 -0.630000 7.000000 128 116 102
-1.450000 -0.620000 7.000000 4 13 13
-1.080000 -0.620000 23.333333 7 15 12
-0.940000 -0.620000 14.000000 11 18 15
-0.320000 -0.620000 5.833333 128 118 106
-0.170000 -0.620000 6.363636 26 29 22
0.160000 -0.620000 3.043478 51 58 43
1.550000 -0.620000 3.333333 119 105 92
1.780000 -0.620000 7.000000 127 113 100
-1.170000 -0.610000 70.000000 11 25 35
-0.620000 -0.610000 5.384615 126 114 105
-0.340000 -0.610000 5.833333 127 115 107
0.030000 -0.610000 5.833333 7 15 11
0.280000 -0.610000 4.117647 154 129 62
0.440000 -0.610000 5.000000 23 56 71
1.570000 -0.610000 3.181818 119 107 92
-1.460000 -0.600000 7.000000 7 15 15
-0.270000 -0.600000 5.833333 136 123 113
-0.110000 -0.600000 4.666667 62 61 55
-0.090000 -0.600000 4.666667 73 72 60
1.030000 -0.600000 23.333333 24 47 53
1.570000 -0.600000 3.181818 102 98 82
1.660000 -0.600000 35.000000 132 118 103
1.780000 -0.600000 7.000000 108 103 88
-1.560000 -0.590000 7.777778 87 93 96
-0.270000 -0.590000 5.833333 128 116 105
-0.090000 -0.590000 4.666667 57 62 47
0.300000 -0.590000 3.684211 157 132 54
0.690000 -0.590000 7.777778 98 84 67
0.910000 -0.590000 10.000000 4 11 9
1.030000 -0.590000 23.333333 25 47 55
1.460000 -0.590000 2.333333 116 103 93
1.570000 -0.590000 3.181818 101 94 79
-1.560000 -0.580000 7.777778 86 94 96
-0.090000 -0.580000 4.666667 49 52 36
0.290000 -0.580000 35.000000 158 131 56
0.650000 -0.580000 2.692308 97 87 70
1.030000 -0.580000 23.333333 24 49 54
1.370000 -0.580000 35.000000 128 115 101
1.460000 -0.580000 2.333333 121 110 96
1.510000 -0.580000 17.500000 123 109 95
-0.880000 -0.570000 5.833333 28 32 29
-0.090000 -0.570000 4.666667 41 43 35
0.150000 -0.570000 2.413793 0 6 3
0.810000 -0.570000 23.333333 82 69 57
1.030000 -0.570000 23.333333 26 47 52
1.460000 -0.570000 2.333333 127 114 101
1.470000 -0.570000 2.333333 124 111 99
1.510000 -0.570000 17.500000 126 111 98
1.790000 -0.570000 7.000000 117 106 92
-1.240000 -0.560000 2.333333 12 24 35
-0.430000 -0.560000 5.833333 116 109 98
-0.290000 -0.560000 3.684211 103 101 85
0.330000 -0.560000 11.666667 120 102 79
0.390000 -0.560000 35.000000 135 127 116
0.570000 -0.560000 7.777778 4 6 2
0.590000 -0.560000 7.000000 10 15 10
1.030000 -0.560000 23.333333 26 49 51
1.410000 -0.560000 35.000000 131 115 104
1.470000 -0.560000 2.333333 127 114 100
1.530000 -0.560000 5.833333 126 113 100
1.650000 -0.560000 3.888889 137 120 103
-1.540000 -0.550000 7.000000 77 88 89
-0.450000 -0.550000 5.833333 36 52 31
-0.200000 -0.550000 14.000000 30 36 26
0.360000 -0.550000 23.333333 92 83 64
0.570000 -0.550000 7.777778 11 12 7
0.590000 -0.550000 7.000000 13 16 11
0.810000 -0.550000 23.333333 86 74 56
1.040000 -0.550000 8.750000 30 52 57
1.410000 -0.550000 35.000000 131 117 104
1.470000 -0.550000 2.333333 127 115 100
1.490000 -0.550000 10.000000 127 115 102
1.840000 -0.550000 6.363636 121 110 96
-1.540000 -0.540000 7.000000 75 86 89
-0.460000 -0.540000 5.833333 28 37 32
0.620000 -0.540000 5.833333 26 41 26
0.640000 -0.540000 5.384615 75 67 56
1.140000 -0.540000 2.500000 41 55 55
1.410000 -0.540000 35.000000 126 113 100
1.470000 -0.540000 2.333333 116 107 94
1.530000 -0.540000 5.833333 113 105 88
-1.540000 -0.530000 7.000000 71 81 85
-0.470000 -0.530000 5.833333 33 36 30
-0.430000 -0.530000 5.000000 49 46 42
-0.230000 -0.530000 14.000000 76 66 66
0.630000 -0.530000 5.384615 82 83 74
0.650000 -0.530000 5.000000 39 44 17
1.570000 -0.530000 3.500000 132 119 102
-1.540000 -0.520000 7.000000 67 78 80
-1.420000 -0.520000 7.000000 13 26 40
-0.660000 -0.520000 5.000000 56 68 53
-0.410000 -0.520000 4.375000 45 49 43
-0.020000 -0.520000 2.692308 12 26 14
1.040000 -0.520000 3.043478 31 53 59
1.820000 -0.520000 7.000000 127 114 98
-0.390000 -0.510000 3.888889 12 24 17
0.060000 -0.510000 3.684211 43 48 33
0.330000 -0.510000 2.333333 125 102 94
1.020000 -0.510000 3.500000 27 51 53
1.080000 -0.510000 2.592593 29 50 56
-1.530000 -0.500000 7.000000 61 73 76
-1.240000 -0.500000 35.000000 11 25 38
-0.570000 -0.500000 10.000000 47 48 41
-0.400000 -0.500000 4.375000 6 16 11
1.020000 -0.500000 3.500000 29 52 57
1.030000 -0.500000 3.181818 32 52 58
-1.530000 -0.490000 7.000000 59 71 74
-1.240000 -0.490000 35.000000 11 26 38
-0.520000 -0.490000 5.833333 28 33 30
-0.470000 -0.490000 5.833333 6 13 10
-0.430000 -0.490000 5.000000 8 14 12
-0.260000 -0.490000 70.000000 34 38 30
0.370000 -0.490000 7.777778 74 83 74
0.440000 -0.490000 5.384615 76 60 52
1.030000 -0.490000 3.181818 33 54 57
-1.340000 -0.480000 5.000000 12 24 38
-0.570000 -0.480000 10.000000 23 27 24
-0.510000 -0.480000 5.833333 6 14 10
-0.470000 -0.480000 5.833333 10 16 13
-0.220000 -0.480000 70.000000 60 62 56
0.330000 -0.480000 10.000000 145 135 132
0.350000 -0.480000 8.750000 110 112 108
0.360000 -0.480000 8.750000 132 126 128
0.410000 -0.480000 6.363636 54 37 32
0.790000 -0.480000 4.666667 95 77 54
1.580000 -0.480000 14.000000 133 120 105
-0.470000 -0.470000 5.833333 11 19 14
-0.240000 -0.470000 70.000000 32 35 32
0.410000 -0.470000 6.363636 57 49 48
1.010000 -0.470000 3.684211 38 57 61
1.140000 -0.470000 2.916667 129 91 21
1.420000 -0.470000 5.384615 126 113 101
1.460000 -0.470000 2.333333 128 114 104
-0.580000 -0.460000 8.750000 28 32 29
-0.500000 -0.460000 5.833333 11 18 16
-0.230000 -0.460000 70.000000 34 35 34
0.410000 -0.460000 6.363636 91 81 84
1.150000 -0.460000 4.117647 130 90 11
1.410000 -0.460000 5.833333 123 111 97
-1.380000 -0.450000 10.000000 12 26 39
-0.960000 -0.450000 23.333333 13 27 42
-0.830000 -0.450000 23.333333 12 25 41
-0.810000 -0.450000 17.500000 13 23 36
-0.690000 -0.450000 70.000000 54 52 52
-0.670000 -0.450000 35.000000 48 50 46
-0.500000 -0.450000 5.833333 13 19 15
-0.220000 -0.450000 70.000000 30 31 30
0.420000 -0.450000 5.833333 96 93 94
0.810000 -0.450000 2.592593 162 71 31
1.210000 -0.450000 35.000000 178 129 48
1.290000 -0.450000 5.000000 126 82 13
1.440000 -0.450000 2.333333 106 96 83
1.490000 -0.450000 3.333333 97 92 76
1.640000 -0.450000 23.333333 132 117 107
-1.450000 -0.440000 7.000000 89 72 75
-0.530000 -0.440000 5.833333 8 13 12
-0.510000 -0.440000 5.384615 11 17 15
-0.030000 -0.440000 35.000000 36 36 27
0.540000 -0.440000 3.043478 45 54 38
0.830000 -0.440000 2.500000 171 76 29
1.290000 -0.440000 5.000000 128 81 12
1.690000 -0.440000 11.666667 131 114 101
1.860000 -0.440000 35.000000 139 123 106
0.350000 -0.430000 2.692308 146 139 127
0.810000 -0.430000 2.592593 196 85 39
1.020000 -0.430000 5.833333 135 149 130
1.100000 -0.430000 4.375000 21 32 22
1.190000 -0.430000 4.117647 155 109 16
1.370000 -0.430000 3.043478 114 104 92
0.360000 -0.420000 2.692308 129 134 119
1.000000 -0.420000 7.000000 48 54 48
1.020000 -0.420000 6.363636 132 145 127
1.290000 -0.420000 5.000000 125 81 11
1.340000 -0.420000 3.500000 120 108 92
-1.720000 -0.410000 7.000000 73 82 81
-0.800000 -0.410000 7.000000 35 61 29
0.450000 -0.410000 5.384615 81 80 74
0.490000 -0.410000 4.666667 29 31 22
0.860000 -0.410000 2.692308 200 88 35
1.210000 -0.410000 35.000000 180 133 58
1.390000 -0.410000 35.000000 104 95 82
-1.720000 -0.400000 7.000000 72 82 82
-0.070000 -0.400000 5.833333 13 22 15
-0.060000 -0.400000 17.500000 14 25 17
0.900000 -0.400000 2.692308 186 92 43
0.920000 -0.400000 2.692308 177 82 36
0.980000 -0.400000 2.692308 130 60 26
1.290000 -0.400000 5.000000 126 81 12
1.400000 -0.400000 17.500000 125 110 99
1.760000 -0.400000 6.363636 109 105 88
-1.720000 -0.390000 7.000000 70 79 78
-1.630000 -0.390000 7.000000 41 51 49
-1.620000 -0.390000 23.333333 12 26 23
-0.400000 -0.390000 8.750000 41 43 40
0.320000 -0.390000 2.592593 121 104 79
0.420000 -0.390000 6.363636 87 84 69
0.450000 -0.390000 5.384615 56 56 45
0.470000 -0.390000 5.000000 43 44 34
0.490000 -0.390000 4.666667 17 22 15
0.850000 -0.390000 2.692308 204 86 33
1.280000 -0.390000 4.666667 137 92 13
1.300000 -0.390000 5.000000 106 70 14
1.390000 -0.390000 5.833333 114 105 92
1.610000 -0.390000 8.750000 94 91 74
-1.720000 -0.380000 7.000000 65 75 76
-1.630000 -0.380000 7.000000 42 51 50
-1.620000 -0.380000 23.333333 6 20 17
-1.030000 -0.380000 5.000000 8 15 11
0.450000 -0.380000 5.384615 40 31 18
0.490000 -0.380000 4.666667 17 23 14
0.840000 -0.380000 2.692308 205 90 41
1.260000 -0.380000 4.666667 156 104 14
1.270000 -0.380000 4.666667 147 97 11
1.300000 -0.380000 5.000000 109 78 39
1.820000 -0.380000 3.043478 130 118 98
-1.720000 -0.370000 7.000000 59 69 69
0.490000 -0.370000 4.666667 21 22 17
1.020000 -0.370000 2.500000 114 46 20
1.290000 -0.370000 4.666667 128 97 55
1.530000 -0.370000 70.000000 129 114 104
-1.240000 -0.360000 14.000000 51 50 42
-1.220000 -0.360000 11.666667 44 44 38
-1.180000 -0.360000 8.750000 37 37 34
-0.390000 -0.360000 5.833333 47 51 44
0.800000 -0.360000 3.043478 211 99 60
0.840000 -0.360000 2.800000 203 87 38
1.020000 -0.360000 2.500000 115 46 21
1.280000 -0.360000 5.000000 140 103 34
-1.430000 -0.350000 7.000000 65 57 58
-0.900000 -0.350000 3.181818 29 35 28
-0.620000 -0.350000 5.833333 47 50 45
0.310000 -0.350000 8.750000 91 108 69
0.330000 -0.350000 7.777778 72 78 48
0.810000 -0.350000 2.800000 207 93 47
1.270000 -0.350000 5.833333 145 98 14
1.320000 -0.350000 4.666667 108 106 80
1.490000 -0.350000 4.117647 130 116 101
1.730000 -0.350000 23.333333 133 118 103
-0.910000 -0.340000 3.181818 11 21 14
-0.630000 -0.340000 7.000000 32 37 32
-0.580000 -0.340000 5.833333 32 40 34
-0.510000 -0.340000 4.375000 33 41 35
0.380000 -0.340000 5.384615 26 27 18
0.420000 -0.340000 4.666667 25 24 18
0.440000 -0.340000 4.375000 24 24 18
0.460000 -0.340000 4.117647 20 22 15
1.080000 -0.340000 2.916667 32 42 46
1.320000 -0.340000 4.666667 107 103 77
1.730000 -0.340000 23.333333 134 118 104
-1.400000 -0.330000 3.500000 54 53 46
-1.320000 -0.330000 2.916667 61 60 52
-1.200000 -0.330000 11.666667 68 64 57
-1.160000 -0.330000 8.750000 65 60 55
-0.850000 -0.330000 7.777778 111 95 94
-0.520000 -0.330000 3.888889 36 40 35
0.840000 -0.330000 2.800000 202 84 32
0.880000 -0.330000 2.592593 195 82 32
1.100000 -0.330000 2.800000 24 32 26
1.860000 -0.330000 35.000000 139 124 108
-0.960000 -0.320000 5.000000 151 133 131
-0.840000 -0.320000 7.777778 121 109 102
-0.690000 -0.320000 3.500000 148 130 130
-0.420000 -0.320000 5.833333 9 16 13
0.860000 -0.320000 2.692308 197 83 31
1.800000 -0.320000 7.000000 130 117 102
1.860000 -0.320000 5.384615 135 123 110
-1.180000 -0.310000 10.000000 76 71 63
-0.960000 -0.310000 35.000000 149 138 129
-0.660000 -0.310000 2.692308 148 138 131
0.300000 -0.310000 8.750000 60 54 43
0.780000 -0.310000 3.181818 211 102 59
0.860000 -0.310000 2.692308 199 83 31
1.090000 -0.310000 2.800000 50 54 55
1.730000 -0.310000 11.666667 131 118 101
1.850000 -0.310000 35.000000 112 108 90
-1.390000 -0.300000 4.117647 70 56 50
-0.970000 -0.300000 70.000000 139 131 120
-0.440000 -0.300000 6.363636 10 17 13
-0.420000 -0.300000 5.833333 8 17 13
0.300000 -0.300000 35.000000 94 82 58
0.830000 -0.300000 2.692308 201 83 29
1.020000 -0.300000 3.181818 109 54 29
1.080000 -0.300000 2.800000 33 46 44
1.580000 -0.300000 4.117647 136 123 110
1.910000 -0.300000 7.000000 45 44 36
-1.190000 -0.290000 11.666667 75 70 61
-0.450000 -0.290000 7.000000 6 14 11
-0.410000 -0.290000 35.000000 8 14 12
0.800000 -0.290000 2.692308 211 95 50
1.150000 -0.290000 2.500000 50 43 28
1.190000 -0.290000 2.500000 146 101 79
1.780000 -0.290000 11.666667 113 107 90
-1.790000 -0.280000 11.666667 8 15 15
0.840000 -0.280000 2.800000 199 85 31
0.860000 -0.280000 2.692308 197 83 30
1.030000 -0.280000 3.181818 97 68 41
1.140000 -0.280000 2.500000 47 43 29
1.260000 -0.280000 5.833333 143 95 14
1.280000 -0.280000 2.800000 115 77 21
1.300000 -0.280000 2.800000 56 43 27
1.900000 -0.280000 7.000000 119 106 94
-0.520000 -0.270000 7.777778 55 57 52
-0.210000 -0.270000 7.000000 24 31 22
0.810000 -0.270000 2.800000 203 84 34
0.950000 -0.270000 2.500000 159 66 25
1.000000 -0.270000 3.333333 119 57 26
1.180000 -0.270000 70.000000 142 98 20
1.200000 -0.270000 70.000000 155 111 36
1.260000 -0.270000 5.833333 127 81 14
1.740000 -0.270000 17.500000 133 118 106
-1.520000 -0.260000 7.000000 15 36 30
-1.080000 -0.260000 7.000000 69 68 57
-0.410000 -0.260000 70.000000 37 40 41
0.380000 -0.260000 6.363636 57 51 29
0.760000 -0.260000 3.333333 210 100 55
0.840000 -0.260000 2.800000 199 84 34
0.860000 -0.260000 2.692308 196 82 32
1.110000 -0.260000 4.117647 54 33 20
1.130000 -0.260000 3.888889 65 30 14
1.150000 -0.260000 70.000000 76 33 12
1.170000 -0.260000 70.000000 83 35 9
1.210000 -0.260000 3.181818 124 76 63
1.250000 -0.260000 2.916667 86 33 11
1.870000 -0.260000 3.888889 138 121 105
-1.520000 -0.250000 7.000000 16 35 28
-1.510000 -0.250000 7.000000 47 54 57
-1.080000 -0.250000 7.000000 71 68 60
-0.690000 -0.250000 2.500000 124 114 101
-0.210000 -0.250000 7.000000 24 29 22
0.150000 -0.250000 2.413793 68 51 38
0.400000 -0.250000 5.384615 69 48 38
0.810000 -0.250000 2.800000 203 85 31
0.910000 -0.250000 2.692308 180 77 35
1.090000 -0.250000 4.375000 49 20 14
1.110000 -0.250000 4.117647 68 16 14
1.210000 -0.250000 3.181818 111 52 49
1.480000 -0.250000 2.413793 114 105 92
1.500000 -0.250000 2.333333 131 117 104
-1.700000 -0.240000 6.363636 34 49 51
-1.510000 -0.240000 7.000000 45 52 55
-1.130000 -0.240000 2.500000 63 65 60
-1.090000 -0.240000 2.333333 62 64 60
-0.220000 -0.240000 7.000000 27 31 23
0.240000 -0.240000 2.800000 143 113 93
0.400000 -0.240000 5.384615 80 58 45
1.060000 -0.240000 4.666667 132 121 106
1.140000 -0.240000 3.684211 82 17 12
1.220000 -0.240000 3.043478 92 26 22
1.240000 -0.240000 2.916667 87 18 13
1.740000 -0.240000 70.000000 135 119 105
-1.700000 -0.230000 6.363636 31 48 49
-1.520000 -0.230000 7.000000 15 34 26
-1.510000 -0.230000 7.000000 45 52 55
-0.800000 -0.230000 7.777778 104 103 94
-0.600000 -0.230000 35.000000 65 66 59
-0.300000 -0.230000 4.117647 17 32 20
-0.200000 -0.230000 35.000000 28 32 24
0.370000 -0.230000 6.363636 69 55 44
0.830000 -0.230000 2.692308 200 84 31
0.950000 -0.230000 2.500000 152 59 20
1.000000 -0.230000 3.333333 106 50 28
1.150000 -0.230000 3.500000 79 14 8
1.440000 -0.230000 11.666667 123 113 100
1.800000 -0.230000 6.363636 120 101 93
-0.700000 -0.220000 7.000000 116 109 97
-0.560000 -0.220000 11.666667 65 69 60
-0.200000 -0.220000 35.000000 24 31 22
0.370000 -0.220000 6.363636 61 49 39
0.380000 -0.220000 6.363636 57 52 29
1.150000 -0.220000 3.500000 80 14 11
1.170000 -0.220000 3.333333 82 14 9
1.520000 -0.220000 2.333333 127 116 102
-0.710000 -0.210000 7.000000 109 100 89
-0.220000 -0.210000 70.000000 25 32 21
-0.200000 -0.210000 35.000000 25 30 24
0.800000 -0.210000 2.692308 203 85 34
0.950000 -0.210000 2.500000 145 57 20
0.990000 -0.210000 3.333333 111 54 30
1.150000 -0.210000 3.500000 79 13 9
1.170000 -0.210000 3.333333 81 14 9
1.190000 -0.210000 3.181818 86 19 12
1.520000 -0.210000 2.333333 129 117 103
-1.360000 -0.200000 3.333333 25 29 20
-1.130000 -0.200000 3.684211 64 64 53
-0.820000 -0.200000 14.000000 123 111 103
-0.220000 -0.200000 70.000000 26 30 22
-0.200000 -0.200000 35.000000 26 33 24
0.290000 -0.200000 35.000000 69 60 46
0.370000 -0.200000 6.363636 63 51 42
0.790000 -0.200000 2.692308 202 86 32
1.160000 -0.200000 3.333333 82 17 12
1.180000 -0.200000 3.181818 85 17 13
1.300000 -0.200000 6.363636 72 62 51
-1.660000 -0.190000 6.363636 45 58 60
-1.400000 -0.190000 4.375000 27 31 30
-0.780000 -0.190000 8.750000 117 108 98
-0.750000 -0.190000 8.750000 116 104 94
-0.730000 -0.190000 7.777778 110 100 93
-0.470000 -0.190000 2.500000 20 38 19
-0.420000 -0.190000 8.750000 44 46 39
-0.220000 -0.190000 70.000000 28 33 23
-0.200000 -0.190000 35.000000 28 32 25
0.750000 -0.190000 2.916667 208 94 49
0.790000 -0.190000 2.692308 202 84 32
0.950000 -0.190000 2.500000 139 55 18
1.160000 -0.190000 3.333333 82 17 12
1.810000 -0.190000 4.666667 133 117 101
-1.520000 -0.180000 7.000000 14 32 26
-0.750000 -0.180000 8.750000 114 104 94
-0.730000 -0.180000 7.777778 113 104 93
-0.480000 -0.180000 2.692308 11 21 13
-0.350000 -0.180000 23.333333 126 116 102
-0.040000 -0.180000 2.592593 28 35 23
1.160000 -0.180000 3.333333 82 15 13
1.760000 -0.180000 5.384615 126 114 99
-1.520000 -0.170000 7.000000 9 28 20
-1.270000 -0.170000 70.000000 79 74 67
-0.830000 -0.170000 17.500000 127 114 102
-0.480000 -0.170000 2.692308 6 17 10
-0.180000 -0.170000 70.000000 35 39 31
-0.170000 -0.170000 70.000000 34 35 29
0.280000 -0.170000 17.500000 41 45 35
0.360000 -0.170000 5.384615 31 24 17
1.160000 -0.170000 3.333333 80 15 12
-1.490000 -0.160000 7.000000 31 38 36
-1.130000 -0.160000 23.333333 74 69 62
-0.780000 -0.160000 7.777778 115 107 95
-0.450000 -0.160000 5.833333 100 111 89
-0.170000 -0.160000 70.000000 35 38 32
-0.030000 -0.160000 2.592593 39 39 26
0.300000 -0.160000 14.000000 35 34 27
0.730000 -0.160000 3.500000 208 98 53
1.160000 -0.160000 3.333333 82 14 11
1.810000 -0.160000 4.117647 134 121 106
-1.550000 -0.150000 70.000000 176 164 160
-1.380000 -0.150000 11.666667 110 106 98
-0.780000 -0.150000 7.777778 117 109 100
-0.710000 -0.150000 7.777778 121 109 100
-0.380000 -0.150000 2.333333 69 73 56
-0.270000 -0.150000 7.777778 41 49 33
-0.220000 -0.150000 70.000000 26 32 25
-0.200000 -0.150000 35.000000 25 33 24
-0.030000 -0.150000 2.592593 39 38 26
0.720000 -0.150000 3.684211 208 101 57
1.180000 -0.150000 3.043478 83 15 13
1.200000 -0.150000 2.916667 94 30 25
1.320000 -0.150000 4.375000 93 65 43
-1.360000 -0.140000 8.750000 72 66 57
-1.260000 -0.140000 14.000000 80 77 69
-0.220000 -0.140000 70.000000 27 33 24
-0.200000 -0.140000 35.000000 28 32 23
-0.030000 -0.140000 2.592593 40 41 28
0.710000 -0.140000 2.333333 206 96 50
0.720000 -0.140000 3.684211 208 99 56
1.180000 -0.140000 3.043478 82 14 11
-1.580000 -0.130000 4.117647 123 126 124
-1.360000 -0.130000 8.750000 68 64 58
-0.560000 -0.130000 5.384615 21 36 27
-0.220000 -0.130000 70.000000 26 32 27
-0.200000 -0.130000 35.000000 28 32 23
0.310000 -0.130000 8.750000 70 61 52
1.180000 -0.130000 3.043478 85 17 12
1.520000 -0.130000 2.333333 131 116 103
1.540000 -0.130000 5.000000 129 114 97
1.720000 -0.130000 7.000000 129 115 103
1.750000 -0.130000 7.000000 112 103 85
1.770000 -0.130000 6.363636 124 114 96
-1.580000 -0.120000 4.117647 90 104 100
-1.500000 -0.120000 7.000000 20 30 25
-1.480000 -0.120000 14.000000 139 136 129
-1.430000 -0.120000 14.000000 115 108 98
-0.220000 -0.120000 70.000000 27 32 25
0.400000 -0.120000 4.666667 170 144 125
0.700000 -0.120000 2.333333 202 91 45
1.000000 -0.120000 2.500000 45 57 49
1.180000 -0.120000 3.043478 82 17 11
1.540000 -0.120000 5.000000 123 112 98
-1.580000 -0.110000 4.117647 43 65 67
-1.560000 -0.110000 3.888889 37 59 61
-1.470000 -0.110000 17.500000 112 105 97
-0.830000 -0.110000 35.000000 136 122 111
-0.810000 -0.110000 11.666667 129 119 105
-0.680000 -0.110000 70.000000 199 200 189
-0.300000 -0.110000 7.777778 18 29 17
-0.220000 -0.110000 70.000000 28 32 23
-0.200000 -0.110000 35.000000 27 32 24
0.260000 -0.110000 70.000000 179 161 132
0.320000 -0.110000 11.666667 181 163 133
0.700000 -0.110000 2.333333 204 93 46
1.640000 -0.110000 35.000000 136 123 108
-1.460000 -0.100000 17.500000 94 92 80
-1.440000 -0.100000 14.000000 115 106 100
-1.260000 -0.100000 14.000000 70 70 62
-0.680000 -0.100000 70.000000 190 188 177
-0.600000 -0.100000 14.000000 7 15 10
-0.220000 -0.100000 70.000000 30 33 25
-0.030000 -0.100000 2.692308 64 57 40
1.610000 -0.100000 35.000000 135 121 106
1.640000 -0.100000 35.000000 135 122 109
-1.460000 -0.090000 17.500000 98 94 85
-1.440000 -0.090000 14.000000 115 106 97
-1.380000 -0.090000 2.592593 100 94 86
-1.260000 -0.090000 14.000000 75 72 64
-1.150000 -0.090000 2.500000 73 68 61
-0.660000 -0.090000 5.000000 158 141 131
-0.500000 -0.090000 3.181818 8 16 13
-0.220000 -0.090000 70.000000 29 33 25
-0.190000 -0.090000 70.000000 31 37 27
-0.010000 -0.090000 70.000000 84 77 64
0.210000 -0.090000 5.384615 86 82 59
0.220000 -0.090000 2.333333 89 98 69
1.040000 -0.090000 2.500000 95 96 96
1.430000 -0.090000 3.043478 112 105 90
-1.500000 -0.080000 7.000000 18 28 26
-1.420000 -0.080000 14.000000 106 99 91
-1.120000 -0.080000 2.333333 58 61 52
-0.560000 -0.080000 10.000000 13 24 17
-0.220000 -0.080000 70.000000 31 35 28
0.980000 -0.080000 5.384615 143 115 99
1.030000 -0.080000 2.692308 170 145 140
1.380000 -0.080000 4.375000 132 129 108
1.770000 -0.080000 35.000000 130 115 103
-1.500000 -0.070000 7.000000 21 30 24
-1.420000 -0.070000 14.000000 105 97 88
-1.260000 -0.070000 23.333333 87 79 77
-1.230000 -0.070000 8.750000 91 82 78
-1.120000 -0.070000 2.333333 29 40 30
-0.770000 -0.070000 7.000000 111 106 98
-0.610000 -0.070000 17.500000 13 20 18
-0.310000 -0.070000 17.500000 102 88 83
-0.220000 -0.070000 70.000000 33 35 27
-0.190000 -0.070000 70.000000 31 40 28
1.310000 -0.070000 4.666667 137 88 52
-1.630000 -0.060000 70.000000 47 56 58
-1.500000 -0.060000 7.000000 23 30 28
-1.420000 -0.060000 14.000000 99 93 83
-1.150000 -0.060000 2.500000 13 23 17
-0.220000 -0.060000 70.000000 34 37 33
1.300000 -0.060000 5.000000 133 72 34
-1.630000 -0.050000 35.000000 42 52 52
-1.500000 -0.050000 7.000000 21 30 26
-0.220000 -0.050000 70.000000 52 48 53
0.190000 -0.050000 70.000000 183 162 133
0.250000 -0.050000 17.500000 107 100 79
0.710000 -0.050000 2.800000 240 127 105
0.730000 -0.050000 2.692308 213 94 50
0.790000 -0.050000 2.916667 194 81 31
0.830000 -0.050000 2.692308 188 81 33
0.990000 -0.050000 2.333333 136 126 98
1.220000 -0.050000 10.000000 173 84 40
1.320000 -0.050000 5.833333 122 108 76
1.790000 -0.050000 7.000000 132 119 102
-1.630000 -0.040000 35.000000 36 49 48
-1.500000 -0.040000 7.000000 23 34 28
-1.440000 -0.040000 17.500000 113 103 98
-1.420000 -0.040000 14.000000 101 93 86
-0.800000 -0.040000 70.000000 88 80 84
0.040000 -0.040000 7.000000 6 15 13
1.470000 -0.040000 2.916667 118 103 79
1.530000 -0.040000 3.888889 119 111 92
-1.630000 -0.030000 35.000000 40 51 51
-0.800000 -0.030000 70.000000 81 78 77
0.490000 -0.030000 2.413793 146 65 32
0.500000 -0.030000 2.413793 157 70 31
0.520000 -0.030000 2.413793 169 75 32
0.540000 -0.030000 2.333333 176 79 33
0.980000 -0.030000 2.592593 101 92 83
1.020000 -0.030000 2.413793 96 85 91
1.330000 -0.030000 4.666667 87 37 29
1.720000 -0.030000 11.666667 138 123 108
-0.200000 -0.020000 3.333333 183 172 154
0.060000 -0.020000 7.000000 46 39 43
0.080000 -0.020000 6.363636 39 39 31
0.630000 -0.020000 2.333333 198 89 41
0.640000 -0.020000 2.333333 200 90 44
1.340000 -0.020000 5.384615 55 37 24
1.420000 -0.020000 2.413793 182 82 40
1.210000 -0.010000 17.500000 183 81 35
1.740000 -0.010000 2.592593 135 122 106
1.760000 -0.010000 8.750000 136 122 105
1.850000 -0.010000 7.000000 126 113 100
1.890000 -0.010000 5.833333 131 118 103
-0.570000 0.000000 35.000000 21 28 24
-0.310000 0.000000 3.181818 176 161 147
1.400000 0.000000 2.333333 111 96 76
-1.280000 0.010000 5.384615 76 75 71
-1.120000 0.010000 7.000000 34 44 34
-0.420000 0.010000 4.117647 20 29 26
1.190000 0.010000 17.500000 158 78 77
1.350000 0.010000 2.916667 50 14 11
1.810000 0.010000 7.000000 134 120 100
1.840000 0.010000 7.000000 116 103 92
1.880000 0.010000 5.833333 94 91 74
-1.130000 0.020000 7.000000 12 24 15
0.400000 0.020000 2.333333 149 110 95
1.240000 0.020000 2.592593 166 82 33
1.830000 0.020000 7.000000 134 117 101
-0.700000 0.030000 70.000000 10 22 15
-0.680000 0.030000 70.000000 15 16 16
0.380000 0.030000 2.333333 63 72 47
0.920000 0.030000 5.833333 120 55 24
-0.660000 0.040000 70.000000 6 15 10
-0.580000 0.040000 6.363636 11 19 16
0.040000 0.040000 3.500000 187 169 153
0.710000 0.040000 2.916667 205 89 40
1.250000 0.040000 7.000000 155 103 66
-1.460000 0.050000 3.043478 99 94 85
-1.070000 0.050000 2.413793 96 87 92
-0.890000 0.050000 4.666667 146 109 95
-0.770000 0.050000 4.117647 114 103 103
-0.660000 0.050000 70.000000 23 31 21
-0.360000 0.050000 3.181818 190 174 163
0.570000 0.050000 23.333333 193 86 37
1.430000 0.050000 3.500000 113 107 90
1.460000 0.050000 3.181818 107 100 88
-1.460000 0.060000 3.043478 96 92 82
-1.300000 0.060000 7.000000 17 28 29
-1.130000 0.060000 2.333333 16 34 19
-1.100000 0.060000 35.000000 90 90 88
0.040000 0.060000 3.500000 190 173 158
0.910000 0.060000 2.592593 135 55 21
1.320000 0.060000 5.384615 80 93 71
1.350000 0.060000 4.666667 73 83 62
-1.290000 0.070000 7.000000 37 42 40
-1.130000 0.070000 2.333333 25 30 25
-0.740000 0.070000 10.000000 33 36 22
0.570000 0.070000 17.500000 193 87 38
0.920000 0.070000 2.500000 126 54 22
1.060000 0.070000 3.684211 16 45 19
1.190000 0.070000 17.500000 163 78 38
1.790000 0.070000 70.000000 160 94 66
1.850000 0.070000 7.000000 121 109 93
1.860000 0.070000 7.000000 119 108 96
1.870000 0.070000 7.000000 117 103 91
-1.310000 0.080000 7.000000 50 54 52
-1.170000 0.080000 7.000000 107 103 100
0.900000 0.080000 2.592593 143 60 23
1.060000 0.080000 3.684211 11 36 14
1.100000 0.080000 3.333333 70 41 34
0.910000 0.090000 2.500000 137 56 21
1.120000 0.090000 3.043478 74 38 33
1.320000 0.090000 5.000000 58 27 23
1.470000 0.090000 7.000000 123 110 99
1.610000 0.090000 4.375000 133 120 106
-0.860000 0.100000 70.000000 96 89 83
-0.840000 0.100000 35.000000 93 86 80
-0.820000 0.100000 23.333333 95 86 82
-0.800000 0.100000 17.500000 94 87 84
-0.760000 0.100000 11.666667 78 72 70
-0.720000 0.100000 8.750000 23 31 27
-0.220000 0.100000 2.413793 245 240 227
-0.200000 0.100000 2.333333 247 236 217
0.170000 0.100000 3.684211 120 109 93
0.570000 0.100000 14.000000 200 92 40
1.100000 0.100000 3.333333 24 30 19
-0.840000 0.110000 23.333333 40 56 38
-0.340000 0.110000 3.043478 227 211 197
-0.240000 0.110000 2.500000 243 239 226
0.160000 0.110000 3.684211 173 153 139
0.260000 0.110000 2.916667 40 45 24
1.110000 0.110000 3.181818 12 25 14
1.230000 0.110000 14.000000 126 62 26
1.670000 0.110000 7.000000 117 106 92
-1.410000 0.120000 7.000000 6 18 12
0.080000 0.120000 3.500000 249 213 195
0.150000 0.120000 3.684211 186 168 151
0.350000 0.120000 2.413793 155 70 31
0.370000 0.120000 2.333333 163 72 30
0.570000 0.120000 11.666667 201 89 39
0.890000 0.120000 2.500000 150 63 24
1.160000 0.120000 2.800000 50 62 40
1.180000 0.120000 2.692308 38 61 31
1.680000 0.120000 7.000000 104 98 84
-1.350000 0.130000 3.500000 8 15 13
-0.790000 0.130000 17.500000 6 13 10
0.090000 0.130000 3.500000 245 214 195
0.110000 0.130000 3.888889 233 203 186
0.130000 0.130000 3.684211 197 176 161
0.150000 0.130000 3.500000 187 170 153
0.330000 0.130000 2.413793 149 68 29
0.890000 0.130000 2.500000 153 65 26
1.140000 0.130000 2.916667 25 40 21
1.820000 0.130000 11.666667 144 123 95
0.080000 0.140000 3.333333 234 215 197
0.140000 0.140000 3.500000 218 191 176
0.320000 0.140000 2.413793 150 67 29
0.870000 0.140000 2.592593 165 72 26
1.140000 0.140000 2.916667 11 37 15
1.870000 0.140000 35.000000 134 90 73
0.090000 0.150000 3.333333 235 213 194
0.130000 0.150000 3.500000 235 209 190
0.310000 0.150000 2.413793 148 68 29
0.660000 0.150000 2.916667 206 93 43
0.680000 0.150000 2.800000 204 91 41
0.860000 0.150000 2.592593 168 73 29
1.140000 0.150000 2.916667 9 33 13
1.430000 0.150000 2.692308 159 78 37
1.850000 0.150000 70.000000 128 114 99
0.120000 0.160000 3.500000 236 213 194
0.300000 0.160000 2.413793 152 68 32
1.430000 0.160000 2.500000 161 79 31
1.450000 0.160000 2.413793 160 78 33
1.850000 0.160000 70.000000 111 101 84
0.300000 0.170000 2.413793 156 74 36
0.320000 0.170000 2.333333 166 77 34
0.660000 0.170000 2.916667 206 94 45
0.850000 0.170000 2.592593 173 74 31
1.080000 0.170000 3.333333 10 35 15
1.140000 0.170000 2.916667 12 34 18
1.220000 0.170000 2.500000 125 122 105
1.300000 0.170000 3.684211 7 18 7
1.440000 0.170000 2.413793 163 80 35
1.490000 0.170000 2.333333 162 81 32
1.850000 0.170000 70.000000 108 95 85
0.420000 0.180000 2.333333 184 83 37
0.440000 0.180000 2.333333 191 86 37
0.850000 0.180000 2.592593 171 72 27
1.080000 0.180000 3.333333 10 36 15
1.140000 0.180000 2.916667 26 40 20
1.200000 0.180000 2.592593 71 80 61
1.460000 0.180000 2.413793 158 80 36
1.510000 0.180000 2.333333 162 80 32
-1.320000 0.190000 7.000000 65 59 59
-0.880000 0.190000 14.000000 71 61 63
-0.840000 0.190000 10.000000 71 61 64
-0.060000 0.190000 3.333333 246 225 209
0.420000 0.190000 2.333333 185 84 37
0.480000 0.190000 2.333333 197 90 41
1.220000 0.190000 2.413793 19 41 23
1.540000 0.190000 2.333333 161 81 33
1.550000 0.190000 2.333333 160 80 32
1.710000 0.190000 5.833333 122 110 95
1.740000 0.190000 7.000000 121 109 93
-0.680000 0.200000 3.333333 80 77 72
-0.580000 0.200000 2.692308 9 21 12
-0.560000 0.200000 2.592593 105 86 79
0.420000 0.200000 2.333333 189 86 38
0.450000 0.200000 2.333333 190 85 39
0.630000 0.200000 3.181818 203 91 41
0.670000 0.200000 2.916667 201 88 40
0.710000 0.200000 2.692308 197 87 37
0.820000 0.200000 2.692308 180 80 31
1.040000 0.200000 3.500000 7 27 12
1.200000 0.200000 2.500000 57 55 39
1.730000 0.200000 7.000000 119 108 90
1.890000 0.200000 8.750000 100 94 79
-0.630000 0.210000 2.333333 88 85 75
-0.620000 0.210000 2.333333 92 86 82
-0.600000 0.210000 2.333333 5 16 9
-0.480000 0.210000 6.363636 221 208 193
0.420000 0.210000 2.333333 191 86 39
1.200000 0.210000 2.500000 109 95 64
1.460000 0.210000 5.384615 128 114 97
1.810000 0.210000 14.000000 131 118 99
-1.020000 0.220000 7.777778 108 107 93
-0.770000 0.220000 8.750000 10 18 14
-0.480000 0.220000 6.363636 218 197 180
-0.150000 0.220000 4.117647 249 237 218
-0.070000 0.220000 3.333333 250 230 210
-0.050000 0.220000 3.181818 250 230 210
0.260000 0.220000 2.333333 56 57 56
0.460000 0.220000 2.333333 196 90 40
0.850000 0.220000 2.592593 173 73 27
1.210000 0.220000 17.500000 99 56 44
1.340000 0.220000 5.384615 62 16 16
1.360000 0.220000 5.000000 10 25 9
1.870000 0.220000 8.750000 131 116 105
-1.200000 0.230000 10.000000 87 86 78
-1.160000 0.230000 8.750000 95 90 83
-0.900000 0.230000 11.666667 78 80 69
-0.130000 0.230000 3.888889 252 236 216
-0.070000 0.230000 3.333333 252 233 213
-0.050000 0.230000 3.181818 252 232 212
0.250000 0.230000 2.333333 56 60 57
0.430000 0.230000 2.333333 190 88 39
0.660000 0.230000 3.043478 202 89 40
0.700000 0.230000 2.800000 198 88 39
0.720000 0.230000 2.692308 195 87 39
1.210000 0.230000 17.500000 132 87 89
1.280000 0.230000 7.000000 101 56 55
1.340000 0.230000 5.384615 50 7 7
1.460000 0.230000 7.000000 123 111 97
-1.310000 0.240000 6.363636 100 92 86
-1.130000 0.240000 7.000000 100 94 84
-0.910000 0.240000 14.000000 86 83 73
-0.890000 0.240000 11.666667 83 79 70
-0.770000 0.240000 5.833333 15 25 19
-0.490000 0.240000 6.363636 226 212 200
0.220000 0.240000 3.888889 118 106 91
0.250000 0.240000 2.333333 67 65 70
0.440000 0.240000 2.413793 186 87 40
0.900000 0.240000 2.500000 155 66 25
1.360000 0.240000 5.000000 10 27 11
-0.900000 0.250000 7.777778 103 94 86
-0.720000 0.250000 3.888889 86 85 77
0.220000 0.250000 3.888889 113 102 86
0.440000 0.250000 2.413793 188 83 39
0.500000 0.250000 35.000000 203 92 42
0.530000 0.250000 17.500000 202 92 43
1.400000 0.250000 4.375000 6 21 11
1.880000 0.250000 35.000000 117 103 92
-1.450000 0.260000 8.750000 11 19 14
-1.440000 0.260000 4.666667 8 15 14
-1.430000 0.260000 7.777778 8 14 13
-1.410000 0.260000 7.000000 7 15 12
-0.790000 0.260000 5.833333 19 24 21
0.550000 0.260000 8.750000 204 92 44
0.960000 0.260000 2.592593 119 49 20
1.210000 0.260000 17.500000 94 62 36
1.230000 0.260000 14.000000 81 53 27
1.250000 0.260000 2.333333 80 57 24
1.330000 0.260000 7.000000 15 21 12
1.590000 0.260000 3.500000 97 92 75
-0.800000 0.270000 5.833333 7 18 13
-0.760000 0.270000 5.000000 10 12 12
0.000000 0.270000 23.333333 241 216 195
0.020000 0.270000 17.500000 236 209 190
0.040000 0.270000 3.333333 200 174 161
0.760000 0.270000 2.692308 188 83 34
0.960000 0.270000 2.500000 122 49 20
1.240000 0.270000 2.333333 92 60 27
1.250000 0.270000 11.666667 97 65 31
1.330000 0.270000 7.000000 7 20 13
1.750000 0.270000 2.500000 153 78 36
1.790000 0.270000 2.333333 159 79 26
1.800000 0.270000 2.333333 159 81 30
1.840000 0.270000 2.413793 154 82 40
-1.690000 0.280000 6.363636 11 24 23
0.360000 0.280000 2.413793 159 148 127
0.710000 0.280000 2.916667 194 85 37
0.760000 0.280000 2.692308 189 84 35
0.980000 0.280000 2.500000 104 44 18
1.330000 0.280000 7.000000 7 21 11
1.760000 0.280000 2.500000 142 88 60
1.800000 0.280000 2.333333 159 81 32
1.870000 0.280000 2.333333 154 79 39
-1.500000 0.290000 7.000000 8 17 13
-1.250000 0.290000 7.000000 84 69 65
-0.780000 0.290000 5.384615 44 46 40
-0.450000 0.290000 3.181818 229 209 195
-0.070000 0.290000 4.666667 244 225 207
0.010000 0.290000 23.333333 220 200 182
0.030000 0.290000 17.500000 222 202 183
0.170000 0.290000 6.363636 192 177 160
0.680000 0.290000 3.333333 195 88 38
1.190000 0.290000 17.500000 62 27 3
1.350000 0.290000 5.833333 7 31 11
1.640000 0.290000 3.888889 101 95 77
1.710000 0.290000 5.000000 126 115 96
-0.820000 0.300000 5.833333 22 28 20
-0.780000 0.300000 5.000000 49 51 47
-0.760000 0.300000 5.833333 18 25 24
0.030000 0.300000 17.500000 222 201 184
0.170000 0.300000 6.363636 166 155 138
0.780000 0.300000 2.692308 184 81 32
1.100000 0.300000 3.333333 14 27 6
1.220000 0.300000 11.666667 64 39 21
1.360000 0.300000 5.384615 7 30 12
1.750000 0.300000 4.375000 129 114 96
1.870000 0.300000 2.333333 160 82 27
-1.500000 0.310000 7.000000 6 17 12
-1.380000 0.310000 7.000000 88 80 68
-0.880000 0.310000 11.666667 85 78 61
-0.860000 0.310000 10.000000 85 77 61
-0.780000 0.310000 5.833333 40 43 37
-0.760000 0.310000 5.833333 19 22 24
-0.720000 0.310000 4.117647 79 73 60
0.170000 0.310000 6.363636 141 130 117
0.510000 0.310000 5.833333 175 157 133
0.780000 0.310000 2.692308 183 80 32
1.220000 0.310000 11.666667 44 30 20
1.850000 0.310000 2.413793 140 99 70
1.870000 0.310000 2.333333 148 82 47
-1.380000 0.320000 7.000000 87 79 67
-0.880000 0.320000 11.666667 70 67 51
-0.860000 0.320000 10.000000 88 79 64
-0.760000 0.320000 5.833333 13 20 18
0.020000 0.320000 3.333333 224 204 189
0.170000 0.320000 6.363636 117 106 94
0.180000 0.320000 6.363636 167 163 144
0.330000 0.320000 70.000000 151 136 117
1.220000 0.320000 11.666667 29 25 19
1.560000 0.320000 4.666667 56 54 40
-1.390000 0.330000 7.000000 92 83 73
-1.080000 0.330000 5.000000 95 88 76
-0.860000 0.330000 10.000000 93 81 68
-0.770000 0.330000 5.833333 15 23 20
0.170000 0.330000 6.363636 101 91 78
0.190000 0.330000 5.833333 203 183 172
0.380000 0.330000 3.888889 81 86 63
0.510000 0.330000 35.000000 191 176 159
0.850000 0.330000 2.692308 169 72 29
0.920000 0.330000 2.592593 148 65 25
0.970000 0.330000 2.592593 125 49 19
0.990000 0.330000 2.800000 105 43 17
1.010000 0.330000 2.800000 84 36 15
1.220000 0.330000 11.666667 29 21 14
1.260000 0.330000 35.000000 101 79 58
1.540000 0.330000 14.000000 62 59 45
-1.440000 0.340000 2.916667 92 84 74
-1.050000 0.340000 2.500000 93 84 73
-1.040000 0.340000 7.777778 90 81 70
-0.870000 0.340000 10.000000 98 87 70
-0.860000 0.340000 10.000000 100 88 73
-0.760000 0.340000 5.833333 13 25 14
0.450000 0.340000 2.800000 106 87 83
0.520000 0.340000 5.833333 150 138 115
0.650000 0.340000 4.375000 176 132 96
0.840000 0.340000 3.043478 174 76 33
1.200000 0.340000 2.500000 78 57 31
1.370000 0.340000 5.000000 6 27 10
1.410000 0.340000 4.375000 5 19 8
1.850000 0.340000 11.666667 131 119 103
-1.440000 0.350000 2.916667 87 79 67
-1.290000 0.350000 35.000000 91 77 68
-1.130000 0.350000 4.375000 90 80 67
-0.860000 0.350000 10.000000 89 82 65
0.190000 0.350000 17.500000 215 195 182
0.380000 0.350000 3.888889 41 58 38
0.960000 0.350000 2.500000 133 55 22
1.000000 0.350000 2.800000 102 44 19
1.330000 0.350000 7.000000 9 22 13
1.860000 0.350000 11.666667 121 109 94
-0.740000 0.360000 4.117647 63 68 49
0.080000 0.360000 10.000000 197 180 165
0.100000 0.360000 8.750000 193 178 164
0.320000 0.360000 2.800000 138 123 106
0.430000 0.360000 2.916667 7 24 3
0.790000 0.360000 4.117647 170 84 46
0.980000 0.360000 2.592593 119 48 19
1.290000 0.360000 8.750000 34 23 17
1.310000 0.360000 7.777778 11 22 15
1.330000 0.360000 7.000000 8 21 12
1.560000 0.360000 17.500000 67 61 50
1.860000 0.360000 11.666667 126 111 102
-0.740000 0.370000 4.117647 125 108 110
0.040000 0.370000 2.333333 186 152 144
0.070000 0.370000 5.384615 175 167 148
0.100000 0.370000 8.750000 195 179 164
0.370000 0.370000 2.500000 121 118 97
0.430000 0.370000 5.000000 104 84 78
0.650000 0.370000 5.000000 150 136 118
1.250000 0.370000 17.500000 53 32 21
1.850000 0.370000 11.666667 131 117 101
-0.840000 0.380000 5.833333 5 13 7
0.040000 0.380000 2.333333 153 132 122
0.070000 0.380000 5.384615 154 143 126
0.080000 0.380000 2.916667 203 190 172
0.100000 0.380000 8.750000 198 180 166
0.400000 0.380000 5.833333 95 101 74
0.870000 0.380000 14.000000 159 72 33
0.890000 0.380000 3.043478 152 65 29
1.000000 0.380000 2.592593 108 47 23
1.190000 0.380000 4.375000 137 104 84
-0.920000 0.390000 8.750000 147 140 128
-0.900000 0.390000 7.777778 143 136 121
-0.840000 0.390000 5.833333 11 23 18
0.030000 0.390000 2.333333 213 181 174
0.090000 0.390000 2.916667 206 182 169
0.890000 0.390000 11.666667 153 74 37
0.990000 0.390000 2.692308 117 52 25
1.010000 0.390000 2.592593 104 49 21
1.310000 0.390000 10.000000 8 22 12
-0.800000 0.400000 5.833333 11 20 17
-0.780000 0.400000 5.384615 8 21 13
0.030000 0.400000 2.333333 200 161 153
0.090000 0.400000 2.916667 212 194 178
1.210000 0.400000 2.413793 87 63 35
1.230000 0.400000 2.333333 61 41 22
1.350000 0.400000 6.363636 7 26 11
-1.030000 0.410000 4.375000 101 106 88
0.000000 0.410000 70.000000 235 236 221
1.160000 0.410000 4.375000 51 32 19
1.350000 0.410000 6.363636 7 27 12
0.000000 0.420000 70.000000 227 212 193
0.030000 0.420000 2.413793 166 145 136
0.100000 0.420000 2.800000 217 199 183
0.650000 0.420000 2.916667 139 128 107
1.350000 0.420000 6.363636 6 26 11
-1.470000 0.430000 5.833333 64 64 55
0.100000 0.430000 2.916667 216 201 181
0.740000 0.430000 3.500000 144 133 114
1.350000 0.430000 6.363636 7 26 11
1.720000 0.430000 6.363636 84 79 61
-1.570000 0.440000 7.000000 15 24 16
-0.020000 0.440000 70.000000 192 188 165
0.030000 0.440000 2.413793 195 178 163
0.040000 0.440000 3.333333 198 181 165
0.590000 0.440000 3.500000 81 80 58
0.630000 0.440000 3.181818 97 92 72
1.070000 0.440000 4.375000 7 33 12
1.370000 0.440000 5.384615 6 22 11
-0.980000 0.450000 17.500000 75 76 67
-0.500000 0.450000 8.750000 230 211 197
0.740000 0.450000 3.500000 114 110 87
1.050000 0.450000 4.666667 7 28 11
1.420000 0.450000 3.888889 12 23 13
1.440000 0.450000 3.684211 31 34 24
-1.660000 0.460000 5.384615 42 47 39
-1.440000 0.460000 7.000000 58 58 50
-0.980000 0.460000 17.500000 63 65 55
-0.440000 0.460000 4.117647 236 221 205
-0.340000 0.460000 3.181818 226 210 197
1.050000 0.460000 4.666667 8 31 12
1.070000 0.460000 4.375000 8 32 12
1.380000 0.460000 4.375000 7 23 13
1.420000 0.460000 3.888889 10 24 14
1.440000 0.460000 3.684211 33 36 24
-1.490000 0.470000 5.833333 14 25 15
0.210000 0.470000 2.333333 209 188 172
0.360000 0.470000 70.000000 67 64 45
0.380000 0.470000 35.000000 69 66 49
0.920000 0.470000 2.800000 62 60 44
1.150000 0.470000 4.375000 14 47 19
1.490000 0.470000 4.375000 62 57 43
1.620000 0.470000 3.684211 61 60 44
-1.070000 0.480000 17.500000 5 13 10
0.360000 0.480000 70.000000 60 59 40
0.390000 0.480000 35.000000 62 60 40
1.000000 0.480000 7.000000 59 57 42
1.390000 0.480000 4.375000 19 25 17
-0.430000 0.500000 4.117647 235 212 195
0.370000 0.500000 17.500000 38 35 22
-1.500000 0.510000 11.666667 58 58 42
-1.420000 0.510000 7.000000 27 36 22
-0.870000 0.510000 5.833333 11 17 17
-0.440000 0.510000 4.117647 232 212 198
-0.340000 0.510000 3.181818 228 208 195
0.260000 0.510000 5.384615 96 83 68
0.590000 0.510000 70.000000 33 30 17
1.180000 0.510000 35.000000 81 64 34
-1.500000 0.520000 14.000000 84 72 48
-0.870000 0.520000 5.833333 6 15 11
-0.710000 0.520000 11.666667 7 13 10
-0.180000 0.520000 5.833333 250 245 228
1.690000 0.520000 4.375000 73 56 29
1.840000 0.520000 7.000000 132 119 98
-1.500000 0.530000 14.000000 80 73 45
-1.440000 0.530000 3.043478 25 29 17
-0.780000 0.530000 7.777778 47 57 51
1.400000 0.530000 70.000000 81 61 31
1.450000 0.530000 14.000000 79 57 27
1.760000 0.530000 4.117647 132 119 101
-1.520000 0.540000 70.000000 14 38 24
-1.510000 0.540000 17.500000 13 36 16
-1.390000 0.540000 35.000000 55 53 40
-0.350000 0.540000 3.043478 227 206 193
1.380000 0.540000 70.000000 80 61 32
1.630000 0.540000 3.181818 84 62 31
-1.510000 0.550000 17.500000 5 17 14
-1.350000 0.550000 7.000000 6 14 10
-0.740000 0.550000 8.750000 9 17 14
1.890000 0.550000 7.000000 122 107 88
-1.510000 0.560000 17.500000 4 15 14
-1.390000 0.560000 70.000000 80 71 53
-0.400000 0.560000 3.333333 166 153 144
-0.380000 0.560000 3.181818 169 159 146
-0.360000 0.560000 3.043478 226 215 199
0.520000 0.560000 2.592593 35 31 17
1.380000 0.560000 70.000000 81 63 32
1.890000 0.560000 7.000000 118 105 84
-1.060000 0.570000 2.592593 45 54 48
-0.150000 0.570000 4.666667 243 217 202
1.120000 0.570000 5.384615 81 61 33
1.420000 0.570000 17.500000 83 63 32
-1.120000 0.580000 2.916667 51 55 46
-1.060000 0.580000 2.592593 44 54 47
-0.150000 0.580000 4.666667 246 224 205
0.380000 0.580000 3.500000 35 32 17
-1.020000 0.590000 2.413793 45 55 47
0.380000 0.590000 3.500000 34 30 17
1.100000 0.590000 35.000000 89 69 41
1.220000 0.590000 35.000000 83 64 36
1.230000 0.590000 7.000000 83 62 33
-1.510000 0.600000 4.375000 4 15 15
-1.070000 0.600000 2.592593 43 53 46
-0.150000 0.600000 4.666667 250 241 227
0.520000 0.600000 2.592593 34 30 17
1.780000 0.600000 2.692308 80 74 74
-1.800000 0.610000 70.000000 7 17 18
-1.590000 0.610000 8.750000 9 20 22
-1.550000 0.610000 7.000000 4 11 11
-1.330000 0.610000 8.750000 6 12 9
-1.290000 0.610000 7.000000 6 14 11
-0.700000 0.610000 2.333333 9 15 13
-0.690000 0.610000 2.333333 9 16 11
-0.190000 0.610000 14.000000 245 229 214
-0.150000 0.610000 4.666667 250 238 219
0.500000 0.610000 2.692308 34 31 16
1.190000 0.610000 11.666667 81 62 32
1.270000 0.610000 35.000000 85 64 35
1.440000 0.610000 70.000000 80 62 33
-1.070000 0.620000 8.750000 41 47 42
-1.030000 0.620000 7.000000 18 30 22
-0.690000 0.620000 2.333333 9 16 12
0.500000 0.620000 2.692308 34 31 17
-0.410000 0.630000 3.333333 158 146 137
-0.390000 0.630000 3.181818 165 153 144
-0.370000 0.630000 3.043478 193 183 166
1.350000 0.630000 5.000000 82 63 33
-1.800000 0.640000 70.000000 6 17 17
-0.350000 0.640000 3.181818 220 205 189
-0.330000 0.640000 3.043478 226 208 195
-0.270000 0.640000 2.692308 243 242 231
-0.210000 0.640000 17.500000 245 234 215
1.580000 0.640000 7.000000 89 70 40
1.840000 0.640000 7.000000 116 106 92
-1.440000 0.650000 70.000000 37 48 38
-1.010000 0.650000 70.000000 38 40 34
0.790000 0.650000 4.375000 36 31 14
1.480000 0.650000 3.888889 90 69 38
-1.130000 0.660000 14.000000 52 52 46
-0.250000 0.660000 2.413793 244 226 208
-0.230000 0.660000 2.333333 244 225 211
0.670000 0.660000 35.000000 36 33 15
1.440000 0.660000 4.375000 83 65 35
1.650000 0.660000 5.833333 82 65 34
-1.220000 0.670000 7.777778 65 61 57
-0.020000 0.680000 3.888889 239 230 213
0.080000 0.680000 7.777778 110 100 81
1.040000 0.680000 14.000000 84 66 36
1.410000 0.680000 17.500000 85 64 35
1.730000 0.680000 3.684211 70 57 29
-0.400000 0.690000 3.043478 73 79 64
-0.020000 0.690000 3.888889 238 224 211
0.080000 0.690000 7.000000 115 103 84
1.620000 0.690000 7.777778 81 64 34
1.860000 0.690000 7.000000 88 81 68
-0.020000 0.700000 3.888889 235 220 207
0.020000 0.700000 3.500000 183 166 149
0.070000 0.700000 6.363636 107 96 76
0.410000 0.700000 2.500000 32 28 14
1.310000 0.700000 35.000000 82 62 32
1.510000 0.700000 70.000000 78 61 32
1.570000 0.700000 70.000000 82 64 35
1.780000 0.700000 8.750000 124 116 100
1.820000 0.700000 7.000000 122 113 97
-1.390000 0.710000 10.000000 64 57 43
-1.100000 0.710000 5.384615 30 42 32
-1.010000 0.710000 7.000000 79 74 71
-0.020000 0.710000 3.888889 232 216 200
0.020000 0.710000 3.500000 174 158 139
0.080000 0.710000 6.363636 110 98 81
1.640000 0.710000 8.750000 78 62 33
-1.550000 0.720000 7.000000 4 10 8
0.020000 0.720000 3.500000 166 150 134
0.640000 0.720000 70.000000 37 32 17
0.710000 0.720000 35.000000 38 30 14
1.530000 0.720000 70.000000 78 60 30
1.840000 0.720000 7.000000 107 99 84
0.120000 0.730000 5.833333 29 24 12
0.160000 0.730000 5.000000 35 34 19
0.620000 0.730000 70.000000 37 33 17
0.640000 0.730000 70.000000 37 34 18
0.710000 0.730000 35.000000 35 32 18
1.460000 0.730000 4.117647 78 61 32
1.530000 0.730000 70.000000 76 59 27
1.780000 0.730000 8.750000 118 108 93
1.820000 0.730000 7.000000 112 102 89
-1.370000 0.740000 14.000000 25 29 19
-1.060000 0.740000 70.000000 39 47 42
-1.040000 0.740000 35.000000 65 65 51
-0.170000 0.740000 3.181818 247 235 216
-0.050000 0.740000 4.375000 174 159 140
0.120000 0.740000 5.833333 35 32 18
0.160000 0.740000 5.000000 35 32 19
0.200000 0.740000 4.375000 34 33 19
0.620000 0.740000 70.000000 36 33 17
0.710000 0.740000 35.000000 36 31 15
1.050000 0.740000 35.000000 81 62 33
1.420000 0.740000 11.666667 79 61 33
-0.830000 0.750000 35.000000 74 70 61
-0.440000 0.750000 3.888889 87 76 67
-0.200000 0.750000 3.181818 243 237 219
0.010000 0.750000 3.684211 162 146 129
0.020000 0.750000 3.684211 163 147 128
0.120000 0.750000 5.833333 37 33 21
0.160000 0.750000 5.000000 37 33 20
0.200000 0.750000 4.375000 33 31 17
1.130000 0.750000 35.000000 81 61 32
-1.060000 0.760000 70.000000 33 44 38
-0.720000 0.760000 7.000000 13 19 18
-0.360000 0.760000 3.043478 119 115 101
0.000000 0.760000 3.888889 163 147 130
0.190000 0.760000 4.375000 34 31 15
0.870000 0.760000 2.692308 35 31 16
1.840000 0.760000 7.000000 25 48 52
-1.380000 0.770000 7.777778 0 5 0
-1.360000 0.770000 7.000000 4 11 9
-1.040000 0.770000 5.833333 68 68 55
-0.850000 0.770000 70.000000 28 78 24
-0.830000 0.770000 35.000000 40 59 36
-0.070000 0.770000 5.000000 170 154 135
0.190000 0.770000 4.375000 32 30 16
0.510000 0.770000 35.000000 38 32 16
1.130000 0.770000 11.666667 81 60 31
1.240000 0.770000 8.750000 79 60 31
1.420000 0.770000 11.666667 81 63 36
1.440000 0.770000 10.000000 80 61 31
1.760000 0.770000 8.750000 25 48 50
1.820000 0.770000 6.363636 26 51 54
-1.350000 0.780000 7.000000 5 11 9
-0.850000 0.780000 70.000000 46 45 44
-0.830000 0.780000 35.000000 27 37 30
-0.710000 0.780000 7.000000 12 23 27
0.160000 0.780000 4.666667 34 32 17
0.180000 0.780000 4.375000 35 31 19
1.130000 0.780000 11.666667 84 62 32
1.840000 0.780000 7.000000 27 49 53
-1.370000 0.790000 8.750000 13 17 15
-1.330000 0.790000 7.000000 6 13 10
-1.000000 0.790000 3.333333 67 63 52
-0.870000 0.790000 17.500000 1 10 2
-0.830000 0.790000 35.000000 7 15 12
-0.110000 0.790000 6.363636 226 187 173
0.150000 0.790000 35.000000 38 31 17
1.380000 0.790000 3.043478 83 63 32
1.700000 0.790000 5.384615 70 55 26
-0.870000 0.800000 17.500000 2 11 6
-0.200000 0.800000 3.043478 219 207 186
-0.120000 0.800000 6.363636 243 223 201
0.510000 0.800000 35.000000 39 31 16
0.690000 0.800000 11.666667 35 31 15
1.250000 0.800000 7.000000 78 60 30
1.500000 0.800000 70.000000 78 62 31
1.700000 0.800000 5.384615 70 55 29
-1.340000 0.810000 35.000000 12 19 15
-1.300000 0.810000 17.500000 8 15 13
-1.130000 0.810000 17.500000 13 19 16
-0.140000 0.810000 2.692308 209 196 176
0.270000 0.810000 3.500000 32 31 15
0.550000 0.810000 17.500000 39 33 18
0.670000 0.810000 7.000000 34 30 15
0.790000 0.810000 4.375000 32 28 15
1.560000 0.810000 10.000000 73 58 29
1.720000 0.810000 4.666667 64 51 27
-1.290000 0.820000 8.750000 33 35 31
-1.250000 0.820000 7.000000 19 24 22
0.280000 0.820000 3.500000 32 30 17
0.320000 0.820000 3.181818 32 31 18
0.780000 0.820000 4.666667 32 30 17
0.800000 0.820000 4.375000 33 33 17
-1.310000 0.830000 11.666667 60 56 51
-1.230000 0.830000 7.000000 47 46 39
-0.470000 0.830000 3.043478 16 22 20
1.110000 0.830000 35.000000 82 61 30
1.490000 0.830000 70.000000 75 57 27
-1.310000 0.840000 11.666667 57 58 48
-0.070000 0.840000 4.375000 149 133 117
-0.940000 0.850000 5.833333 6 13 11
-0.350000 0.860000 35.000000 226 205 192
-0.270000 0.860000 11.666667 177 160 149
-1.630000 0.870000 17.500000 4 13 13
-1.520000 0.870000 17.500000 7 15 14
-0.940000 0.870000 5.833333 6 15 11
-0.350000 0.870000 35.000000 227 207 192
-1.170000 0.880000 17.500000 6 14 11
-0.350000 0.880000 3.333333 225 205 191
-0.330000 0.880000 3.181818 229 210 193
1.850000 0.880000 3.888889 14 28 25
-0.750000 0.890000 35.000000 46 47 41
-0.540000 0.890000 5.384615 16 28 22
-0.300000 0.890000 3.333333 232 215 198
0.530000 0.890000 17.500000 43 37 28
0.600000 0.890000 8.750000 13 18 14
0.910000 0.890000 23.333333 5 12 8
1.260000 0.890000 3.684211 31 33 19
1.720000 0.890000 5.833333 95 77 52
-1.300000 0.900000 7.000000 8 15 12
-0.550000 0.900000 5.384615 14 22 18
-0.540000 0.900000 5.384615 16 26 23
-0.300000 0.900000 3.333333 232 217 201
0.400000 0.900000 2.692308 20 27 21
0.540000 0.900000 14.000000 52 46 38
1.220000 0.900000 5.000000 28 33 21
1.590000 0.900000 23.333333 95 81 56
1.730000 0.900000 5.384615 91 76 52
1.870000 0.900000 3.500000 15 29 26
-1.110000 0.910000 7.000000 8 15 13
-1.070000 0.910000 5.833333 6 13 9
-0.190000 0.910000 3.181818 249 246 233
0.380000 0.910000 3.181818 26 30 26
1.140000 0.910000 6.363636 9 23 22
1.590000 0.910000 17.500000 97 81 55
1.770000 0.910000 4.375000 15 28 26
1.890000 0.910000 3.181818 13 28 25
-1.100000 0.920000 7.000000 10 17 14
-1.060000 0.920000 5.833333 7 14 12
-0.190000 0.920000 3.181818 250 245 235
0.010000 0.920000 3.181818 187 171 153
0.410000 0.920000 2.800000 17 23 19
0.650000 0.920000 17.500000 8 13 10
0.910000 0.920000 17.500000 8 12 9
1.180000 0.920000 5.000000 9 17 14
1.760000 0.920000 4.375000 9 24 20
-1.070000 0.930000 5.833333 6 13 10
-0.610000 0.930000 8.750000 98 90 74
-0.550000 0.930000 17.500000 41 42 40
-0.210000 0.930000 3.333333 249 244 235
0.010000 0.930000 3.181818 187 169 150
1.140000 0.930000 6.363636 10 23 22
1.200000 0.930000 5.000000 9 16 11
1.760000 0.930000 4.375000 9 25 20
-0.610000 0.940000 8.750000 98 89 74
-0.520000 0.940000 5.384615 20 26 22
-0.180000 0.940000 3.181818 250 248 236
0.420000 0.940000 2.916667 9 19 15
0.660000 0.940000 17.500000 5 13 10
1.260000 0.940000 3.500000 29 31 17
1.320000 0.940000 3.043478 33 34 22
1.760000 0.940000 4.375000 8 24 19
-1.120000 0.950000 7.000000 6 13 11
0.610000 0.950000 35.000000 10 18 12
1.160000 0.950000 6.363636 10 23 22
1.760000 0.950000 4.375000 6 22 19
-1.140000 0.960000 7.777778 6 14 11
-0.610000 0.960000 8.750000 78 70 52
-0.040000 0.960000 3.500000 216 175 160
0.920000 0.960000 35.000000 10 17 11
1.760000 0.960000 4.375000 6 20 18
-1.140000 0.970000 7.777778 5 12 9
-0.380000 0.970000 3.333333 217 219 210
-0.360000 0.970000 3.181818 233 227 214
-0.340000 0.970000 3.043478 238 230 218
0.690000 0.970000 11.666667 8 12 11
1.010000 0.970000 17.500000 5 11 7
1.760000 0.970000 4.375000 7 20 19
-0.650000 0.980000 14.000000 58 47 30
0.380000 0.980000 10.000000 38 40 31
0.430000 0.980000 7.000000 35 38 27
0.440000 0.980000 7.000000 36 41 30
0.580000 0.980000 6.363636 5 13 10
1.770000 0.980000 4.375000 13 24 21
-0.670000 0.990000 23.333333 62 49 31
0.360000 0.990000 10.000000 61 52 32
0.550000 0.990000 7.777778 6 12 9
0.570000 0.990000 7.000000 4 10 7
1.770000 0.990000 4.375000 12 22 19
-1.250000 1.000000 14.000000 7 14 10
-0.800000 1.000000 35.000000 68 56 38
-0.270000 1.000000 2.500000 244 241 225
0.360000 1.000000 8.750000 59 49 31
1.770000 1.000000 4.375000 11 21 18
-0.240000 1.010000 2.500000 246 243 234
1.770000 1.010000 4.375000 11 23 20
-1.170000 1.020000 7.000000 4 11 10
1.750000 1.020000 4.666667 64 54 46
1.770000 1.020000 4.375000 9 20 17
-1.170000 1.030000 7.000000 4 11 8
-0.860000 1.030000 3.333333 51 51 32
-0.260000 1.030000 3.043478 246 245 238
0.220000 1.030000 14.000000 74 61 39
1.440000 1.030000 5.000000 10 24 17
1.530000 1.030000 3.888889 90 75 52
1.740000 1.030000 4.666667 93 81 58
1.760000 1.030000 4.375000 6 18 14
-1.170000 1.040000 7.000000 5 11 8
1.440000 1.040000 5.000000 15 21 17
1.520000 1.040000 3.888889 91 77 54
1.530000 1.040000 3.888889 90 76 50
1.760000 1.040000 4.375000 8 19 14
-1.210000 1.050000 11.666667 7 14 11
0.320000 1.050000 3.684211 77 63 42
1.440000 1.050000 5.000000 7 16 11
1.520000 1.050000 3.888889 89 75 51
1.540000 1.050000 3.684211 91 78 52
1.770000 1.050000 4.375000 16 22 16
-1.210000 1.060000 11.666667 7 12 10
1.440000 1.060000 5.000000 9 16 14
1.520000 1.060000 3.888889 88 75 50
1.530000 1.060000 3.888889 89 75 46
-0.840000 1.070000 3.181818 76 63 45
-0.720000 1.070000 2.500000 78 63 44
-0.070000 1.070000 4.375000 241 228 207
1.530000 1.070000 3.888889 89 76 49
1.760000 1.070000 4.375000 12 20 14
0.000000 1.090000 3.684211 165 147 136
0.270000 1.090000 3.500000 75 57 33
0.490000 1.090000 35.000000 13 20 13
-0.370000 1.100000 2.333333 196 192 198
-0.290000 1.100000 2.413793 103 92 102
-0.270000 1.100000 2.333333 197 183 163
-0.260000 1.100000 2.500000 203 193 176
0.220000 1.100000 5.000000 47 36 23
0.240000 1.100000 4.666667 44 35 21
-0.750000 1.110000 8.750000 134 107 73
-0.460000 1.110000 4.117647 181 160 161
-0.380000 1.110000 2.692308 183 173 153
-0.280000 1.110000 2.692308 218 222 211
-0.110000 1.110000 8.750000 227 209 183
-0.780000 1.120000 4.117647 143 112 79
-0.500000 1.120000 5.833333 213 195 176
0.110000 1.120000 3.500000 174 160 142
0.290000 1.120000 3.888889 89 69 48
1.810000 1.130000 17.500000 42 41 29
1.850000 1.130000 11.666667 39 39 28
-1.570000 1.140000 8.750000 4 11 8
-1.020000 1.140000 3.333333 125 114 102
-0.920000 1.140000 2.692308 18 20 12
-0.560000 1.140000 3.043478 139 109 78
0.090000 1.140000 3.181818 193 179 159
0.330000 1.140000 3.684211 137 105 69
-1.570000 1.150000 8.750000 5 12 8
-1.280000 1.150000 8.750000 23 31 23
-0.930000 1.150000 2.692308 11 23 12
-0.900000 1.150000 2.800000 141 114 82
-0.820000 1.150000 7.000000 144 113 82
1.700000 1.150000 7.000000 88 77 48
1.760000 1.150000 5.000000 53 52 38
1.780000 1.150000 5.000000 54 52 37
-1.630000 1.160000 11.666667 5 14 15
-1.420000 1.160000 5.833333 34 45 32
-0.850000 1.160000 35.000000 140 110 76
0.010000 1.160000 3.684211 199 183 167
1.580000 1.160000 6.363636 89 77 50
-0.730000 1.170000 7.777778 135 104 74
-0.420000 1.170000 3.043478 98 78 102
0.300000 1.170000 4.117647 135 103 69
0.650000 1.170000 70.000000 7 13 8
1.580000 1.170000 6.363636 89 77 50
-0.750000 1.180000 8.750000 137 104 72
1.560000 1.180000 7.777778 93 83 58
-0.810000 1.190000 35.000000 138 107 73
-0.020000 1.190000 23.333333 174 169 150
0.000000 1.190000 4.666667 203 192 166
0.060000 1.190000 3.888889 194 176 156
1.390000 1.190000 8.750000 78 66 44
1.780000 1.190000 4.375000 54 51 39
-1.450000 1.200000 4.375000 5 14 10
-0.460000 1.200000 3.333333 129 111 122
-0.310000 1.200000 2.333333 111 100 119
0.690000 1.200000 17.500000 5 15 9
0.710000 1.200000 35.000000 6 13 10
1.390000 1.200000 8.750000 78 68 44
-1.610000 1.210000 8.750000 6 15 16
-1.530000 1.210000 5.833333 7 13 11
-1.090000 1.210000 5.833333 7 14 11
-0.360000 1.210000 2.500000 216 208 186
-0.310000 1.210000 2.333333 100 96 117
-0.160000 1.210000 70.000000 219 219 212
-0.110000 1.210000 5.833333 221 209 183
1.390000 1.210000 8.750000 79 68 44
1.580000 1.210000 6.363636 87 75 49
1.820000 1.210000 17.500000 51 53 38
1.820000 1.220000 17.500000 52 51 38
-1.650000 1.230000 17.500000 3 14 13
-1.120000 1.230000 2.916667 11 21 17
-0.150000 1.230000 70.000000 203 192 170
1.840000 1.230000 14.000000 54 50 39
-1.650000 1.240000 17.500000 5 13 13
-0.440000 1.240000 3.684211 195 179 157
-0.280000 1.240000 5.833333 215 203 181
-0.260000 1.240000 5.833333 205 189 165
0.110000 1.240000 3.500000 192 176 156
0.510000 1.240000 70.000000 13 21 13
1.270000 1.240000 35.000000 80 70 46
1.910000 1.240000 7.000000 17 20 15
-1.590000 1.250000 8.750000 5 13 11
-0.280000 1.250000 5.833333 209 193 172
-0.010000 1.250000 8.750000 208 193 168
0.510000 1.250000 70.000000 33 33 26
1.010000 1.250000 70.000000 7 13 10
1.830000 1.250000 23.333333 52 51 37
-1.360000 1.260000 5.833333 9 17 14
-0.880000 1.260000 11.666667 142 111 79
-0.480000 1.260000 3.333333 194 178 156
-0.320000 1.260000 2.413793 169 152 156
-0.310000 1.260000 10.000000 96 93 105
-0.280000 1.260000 5.833333 203 192 167
0.160000 1.260000 17.500000 142 107 87
1.010000 1.260000 70.000000 7 13 11
1.600000 1.260000 6.363636 90 79 54
1.800000 1.260000 4.375000 52 52 39
-0.420000 1.270000 2.916667 192 175 155
-0.030000 1.270000 11.666667 208 192 169
0.440000 1.270000 3.333333 68 45 31
0.750000 1.270000 70.000000 30 31 21
1.600000 1.270000 6.363636 90 80 54
-1.650000 1.280000 17.500000 5 15 13
-1.530000 1.280000 7.000000 5 12 8
-0.420000 1.280000 2.916667 192 176 157
-0.330000 1.280000 14.000000 200 177 174
-0.010000 1.280000 8.750000 207 191 167
0.850000 1.280000 70.000000 30 31 18
-1.570000 1.290000 7.000000 5 11 8
-0.850000 1.290000 5.833333 140 108 78
-0.400000 1.290000 2.916667 193 177 156
-0.360000 1.290000 2.692308 208 192 168
-0.260000 1.290000 5.384615 207 190 167
-0.200000 1.290000 3.500000 206 193 170
0.750000 1.290000 70.000000 35 34 23
0.760000 1.290000 70.000000 35 36 24
0.820000 1.290000 17.500000 32 34 23
0.840000 1.290000 14.000000 33 35 24
1.160000 1.290000 5.000000 7 19 17
1.720000 1.290000 5.384615 87 76 50
-1.390000 1.300000 6.363636 12 21 14
-0.380000 1.300000 2.916667 196 182 160
-0.260000 1.300000 5.384615 206 191 170
0.140000 1.300000 3.684211 194 177 155
0.530000 1.300000 17.500000 78 70 55
0.590000 1.300000 70.000000 36 35 23
1.720000 1.300000 5.384615 89 77 51
1.780000 1.300000 5.000000 51 48 36
-1.610000 1.310000 10.000000 5 14 13
-1.590000 1.310000 8.750000 6 13 11
-0.870000 1.310000 35.000000 141 109 77
-0.400000 1.310000 2.916667 191 173 153
-0.340000 1.310000 3.333333 208 192 171
-0.300000 1.310000 3.043478 158 158 146
-0.280000 1.310000 5.833333 199 186 162
0.530000 1.310000 17.500000 79 68 55
1.720000 1.310000 5.384615 88 77 52
-1.240000 1.320000 7.777778 11 19 13
-0.870000 1.320000 35.000000 139 108 76
-0.830000 1.320000 17.500000 140 107 77
-0.440000 1.320000 3.181818 192 173 154
-0.400000 1.320000 2.916667 193 174 153
-0.240000 1.320000 4.375000 196 181 167
1.600000 1.320000 3.684211 90 78 53
-1.670000 1.330000 17.500000 5 16 13
-1.590000 1.330000 8.750000 5 13 8
-0.870000 1.330000 35.000000 140 106 75
-0.830000 1.330000 17.500000 142 109 77
-0.460000 1.330000 3.181818 192 172 153
-0.420000 1.330000 2.916667 192 175 155
-0.380000 1.330000 2.692308 199 183 162
-0.360000 1.330000 2.592593 210 192 172
0.260000 1.330000 3.888889 132 101 68
0.530000 1.330000 70.000000 78 67 54
1.360000 1.330000 3.888889 81 71 49
-0.380000 1.340000 2.692308 198 182 162
-0.360000 1.340000 2.592593 211 192 169
-0.270000 1.340000 5.384615 171 159 151
0.530000 1.340000 70.000000 80 68 55
1.840000 1.340000 70.000000 47 49 36
-0.700000 1.350000 2.333333 136 106 73
0.530000 1.350000 70.000000 75 66 54
0.950000 1.350000 8.750000 28 31 20
1.230000 1.350000 3.888889 80 68 44
-0.980000 1.360000 2.916667 57 59 49
-0.380000 1.360000 2.692308 198 181 158
0.240000 1.360000 4.117647 133 99 70
0.530000 1.360000 70.000000 76 64 53
0.790000 1.360000 35.000000 99 87 71
0.950000 1.360000 8.750000 28 30 19
1.220000 1.360000 4.117647 84 73 50
0.600000 1.370000 14.000000 33 37 24
0.970000 1.370000 7.777778 27 32 18
1.220000 1.370000 4.117647 85 73 52
-1.300000 1.380000 17.500000 53 55 54
-0.400000 1.380000 2.916667 193 174 154
-0.380000 1.380000 2.800000 198 182 162
-0.020000 1.380000 17.500000 189 176 158
0.370000 1.380000 3.888889 125 94 60
0.980000 1.380000 8.750000 27 33 20
1.000000 1.380000 7.777778 20 25 17
1.230000 1.380000 3.888889 79 67 46
1.580000 1.380000 3.888889 86 76 50
1.780000 1.380000 5.000000 50 50 35
-0.360000 1.390000 2.592593 209 191 169
-0.270000 1.390000 5.384615 184 172 159
-0.150000 1.390000 17.500000 186 179 159
0.250000 1.390000 5.000000 131 99 65
0.980000 1.390000 8.750000 30 31 21
1.000000 1.390000 7.777778 23 26 16
1.800000 1.390000 4.666667 51 49 35
-1.330000 1.400000 70.000000 38 45 37
-0.730000 1.400000 2.500000 139 108 73
-0.390000 1.400000 2.692308 192 172 152
-0.160000 1.400000 17.500000 176 167 157
0.600000 1.400000 35.000000 33 37 25
0.990000 1.400000 7.777778 26 29 17
1.760000 1.400000 5.384615 55 53 39
1.800000 1.400000 4.666667 47 49 36
-0.390000 1.410000 2.692308 192 172 153
-0.240000 1.410000 70.000000 177 163 153
-0.180000 1.410000 17.500000 188 169 161
0.250000 1.410000 5.000000 135 101 69
0.330000 1.410000 3.888889 127 93 61
0.930000 1.410000 7.777778 32 33 20
1.200000 1.410000 4.666667 58 60 44
1.840000 1.410000 3.684211 48 48 35
-0.240000 1.420000 70.000000 174 161 154
0.100000 1.420000 8.750000 161 156 140
0.250000 1.420000 5.000000 134 101 67
0.330000 1.420000 3.888889 124 92 59
1.780000 1.420000 5.000000 48 47 34
1.800000 1.420000 4.666667 46 47 34
-1.130000 1.430000 3.181818 11 17 11
-1.110000 1.430000 3.043478 14 19 13
-0.250000 1.430000 70.000000 100 91 84
0.250000 1.430000 5.000000 64 50 33
0.310000 1.430000 4.117647 63 48 31
0.330000 1.430000 3.888889 61 46 31
0.940000 1.430000 7.777778 16 16 11
0.980000 1.430000 7.777778 13 16 10
1.200000 1.430000 4.666667 30 31 24
1.860000 1.430000 3.888889 24 24 17
1.870000 1.430000 3.888889 24 25 18
